<svg width="500" height="500" viewBox="0 0 500 500" fill="none" xmlns="http://www.w3.org/2000/svg">
<rect width="500" height="500" fill="white"/>
<path d="M352.104 430.936L346.245 431.575C346.079 430.983 345.789 430.427 345.375 429.906C344.972 429.385 344.428 428.965 343.741 428.646C343.055 428.326 342.214 428.166 341.22 428.166C339.882 428.166 338.758 428.456 337.846 429.036C336.947 429.616 336.503 430.368 336.515 431.291C336.503 432.084 336.793 432.729 337.385 433.226C337.988 433.724 338.983 434.132 340.368 434.452L345.02 435.446C347.6 436.002 349.518 436.884 350.772 438.092C352.039 439.299 352.678 440.879 352.69 442.832C352.678 444.549 352.175 446.064 351.181 447.378C350.198 448.68 348.831 449.698 347.079 450.432C345.327 451.166 343.315 451.533 341.042 451.533C337.704 451.533 335.017 450.834 332.981 449.437C330.945 448.029 329.732 446.07 329.341 443.56L335.609 442.957C335.893 444.188 336.497 445.117 337.42 445.744C338.343 446.372 339.545 446.685 341.025 446.685C342.552 446.685 343.777 446.372 344.7 445.744C345.635 445.117 346.103 444.342 346.103 443.418C346.103 442.637 345.801 441.992 345.197 441.483C344.605 440.974 343.682 440.583 342.427 440.311L337.775 439.334C335.159 438.79 333.224 437.873 331.969 436.582C330.714 435.28 330.093 433.635 330.105 431.646C330.093 429.965 330.549 428.509 331.472 427.278C332.407 426.035 333.703 425.077 335.36 424.402C337.03 423.715 338.953 423.372 341.131 423.372C344.327 423.372 346.842 424.053 348.677 425.414C350.524 426.775 351.666 428.616 352.104 430.936Z" fill="url(#paint0_linear_39_21)"/>
<path d="M285.675 451V423.727H291.819V428.361H292.138C292.707 426.799 293.648 425.58 294.962 424.704C296.275 423.816 297.844 423.372 299.667 423.372C301.513 423.372 303.07 423.822 304.337 424.721C305.615 425.609 306.515 426.823 307.035 428.361H307.319C307.923 426.846 308.941 425.639 310.373 424.739C311.818 423.828 313.528 423.372 315.505 423.372C318.014 423.372 320.062 424.165 321.648 425.751C323.234 427.338 324.028 429.652 324.028 432.694V451H317.582V433.688C317.582 431.995 317.132 430.758 316.233 429.977C315.333 429.184 314.232 428.788 312.93 428.788C311.38 428.788 310.166 429.273 309.29 430.244C308.426 431.202 307.994 432.451 307.994 433.99V451H301.691V433.422C301.691 432.013 301.265 430.889 300.413 430.048C299.572 429.208 298.471 428.788 297.11 428.788C296.187 428.788 295.346 429.024 294.589 429.498C293.831 429.959 293.227 430.616 292.778 431.469C292.328 432.309 292.103 433.292 292.103 434.416V451H285.675Z" fill="url(#paint1_linear_39_21)"/>
<path d="M268.111 451.533C265.376 451.533 263.015 450.964 261.026 449.828C259.049 448.68 257.528 447.058 256.463 444.963C255.397 442.856 254.865 440.376 254.865 437.523C254.865 434.718 255.397 432.256 256.463 430.137C257.54 428.006 259.043 426.349 260.973 425.165C262.902 423.97 265.169 423.372 267.773 423.372C269.454 423.372 271.04 423.644 272.532 424.189C274.035 424.721 275.361 425.55 276.509 426.675C277.669 427.799 278.58 429.231 279.243 430.971C279.906 432.7 280.238 434.759 280.238 437.15V439.121H257.883V434.789H274.076C274.065 433.558 273.798 432.463 273.277 431.504C272.757 430.534 272.029 429.77 271.093 429.214C270.17 428.657 269.093 428.379 267.862 428.379C266.548 428.379 265.394 428.699 264.4 429.338C263.405 429.965 262.63 430.794 262.074 431.824C261.529 432.842 261.251 433.96 261.239 435.18V438.962C261.239 440.548 261.529 441.909 262.109 443.045C262.689 444.17 263.5 445.034 264.542 445.638C265.583 446.23 266.802 446.525 268.199 446.525C269.134 446.525 269.981 446.395 270.738 446.135C271.496 445.863 272.153 445.466 272.709 444.945C273.266 444.424 273.686 443.779 273.97 443.01L279.971 443.685C279.592 445.271 278.87 446.656 277.805 447.839C276.752 449.011 275.402 449.923 273.757 450.574C272.111 451.213 270.229 451.533 268.111 451.533Z" fill="url(#paint2_linear_39_21)"/>
<path d="M250.954 423.727V428.699H235.276V423.727H250.954ZM239.147 417.193H245.574V442.797C245.574 443.661 245.704 444.324 245.965 444.785C246.237 445.235 246.592 445.543 247.03 445.709C247.468 445.874 247.953 445.957 248.486 445.957C248.889 445.957 249.256 445.928 249.587 445.869C249.93 445.809 250.191 445.756 250.368 445.709L251.451 450.734C251.108 450.852 250.617 450.982 249.978 451.124C249.35 451.266 248.581 451.349 247.669 451.373C246.059 451.42 244.609 451.177 243.319 450.645C242.029 450.1 241.005 449.26 240.247 448.124C239.502 446.987 239.135 445.567 239.147 443.862V417.193Z" fill="url(#paint3_linear_39_21)"/>
<path d="M231.45 430.936L225.59 431.575C225.425 430.983 225.135 430.427 224.72 429.906C224.318 429.385 223.773 428.965 223.087 428.646C222.4 428.326 221.56 428.166 220.566 428.166C219.228 428.166 218.103 428.456 217.192 429.036C216.292 429.616 215.848 430.368 215.86 431.291C215.848 432.084 216.138 432.729 216.73 433.226C217.334 433.724 218.328 434.132 219.713 434.452L224.365 435.446C226.946 436.002 228.863 436.884 230.118 438.092C231.385 439.299 232.024 440.879 232.036 442.832C232.024 444.549 231.521 446.064 230.527 447.378C229.544 448.68 228.177 449.698 226.425 450.432C224.673 451.166 222.661 451.533 220.388 451.533C217.05 451.533 214.363 450.834 212.327 449.437C210.291 448.029 209.078 446.07 208.687 443.56L214.955 442.957C215.239 444.188 215.843 445.117 216.766 445.744C217.689 446.372 218.891 446.685 220.37 446.685C221.897 446.685 223.122 446.372 224.046 445.744C224.981 445.117 225.448 444.342 225.448 443.418C225.448 442.637 225.147 441.992 224.543 441.483C223.951 440.974 223.028 440.583 221.773 440.311L217.121 439.334C214.505 438.79 212.57 437.873 211.315 436.582C210.06 435.28 209.439 433.635 209.451 431.646C209.439 429.965 209.894 428.509 210.818 427.278C211.753 426.035 213.049 425.077 214.706 424.402C216.375 423.715 218.299 423.372 220.477 423.372C223.673 423.372 226.188 424.053 228.023 425.414C229.87 426.775 231.012 428.616 231.45 430.936Z" fill="url(#paint4_linear_39_21)"/>
<path d="M185.081 461.227C184.205 461.227 183.394 461.156 182.648 461.014C181.914 460.884 181.328 460.73 180.89 460.553L182.382 455.545C183.317 455.818 184.151 455.948 184.885 455.936C185.619 455.924 186.264 455.693 186.821 455.244C187.389 454.806 187.868 454.072 188.259 453.042L188.809 451.568L178.919 423.727H185.738L192.023 444.324H192.307L198.61 423.727H205.446L194.527 454.303C194.018 455.747 193.343 456.984 192.503 458.014C191.662 459.055 190.632 459.848 189.413 460.393C188.206 460.949 186.762 461.227 185.081 461.227Z" fill="url(#paint5_linear_39_21)"/>
<path d="M168.661 424.633C168.495 423.082 167.797 421.875 166.566 421.011C165.347 420.146 163.76 419.714 161.807 419.714C160.434 419.714 159.256 419.922 158.274 420.336C157.291 420.75 156.54 421.312 156.019 422.023C155.498 422.733 155.232 423.544 155.22 424.455C155.22 425.213 155.392 425.87 155.735 426.426C156.09 426.982 156.569 427.456 157.173 427.847C157.777 428.225 158.446 428.545 159.179 428.805C159.913 429.066 160.653 429.285 161.399 429.462L164.808 430.315C166.181 430.634 167.501 431.066 168.768 431.611C170.046 432.155 171.188 432.842 172.194 433.67C173.212 434.499 174.017 435.499 174.609 436.671C175.201 437.843 175.497 439.216 175.497 440.79C175.497 442.921 174.952 444.797 173.863 446.419C172.774 448.029 171.2 449.289 169.14 450.201C167.093 451.101 164.613 451.55 161.701 451.55C158.872 451.55 156.415 451.112 154.332 450.236C152.261 449.361 150.639 448.082 149.467 446.401C148.307 444.72 147.68 442.673 147.585 440.258H154.066C154.16 441.524 154.551 442.578 155.238 443.418C155.924 444.259 156.818 444.886 157.919 445.3C159.031 445.715 160.274 445.922 161.647 445.922C163.08 445.922 164.334 445.709 165.412 445.283C166.501 444.845 167.353 444.241 167.968 443.472C168.584 442.69 168.898 441.779 168.91 440.737C168.898 439.79 168.62 439.009 168.075 438.393C167.531 437.766 166.767 437.245 165.785 436.831C164.814 436.405 163.678 436.026 162.375 435.695L158.238 434.629C155.244 433.86 152.876 432.694 151.136 431.131C149.408 429.557 148.544 427.468 148.544 424.864C148.544 422.721 149.124 420.845 150.284 419.235C151.456 417.625 153.048 416.376 155.06 415.489C157.072 414.589 159.351 414.139 161.896 414.139C164.477 414.139 166.737 414.589 168.679 415.489C170.632 416.376 172.165 417.613 173.277 419.2C174.39 420.774 174.964 422.585 175 424.633H168.661Z" fill="url(#paint6_linear_39_21)"/>
<path d="M399.116 390.479C396.974 390.479 395.056 389.929 393.363 388.828C391.671 387.727 390.333 386.129 389.351 384.034C388.368 381.939 387.877 379.394 387.877 376.399C387.877 373.369 388.374 370.812 389.368 368.729C390.375 366.633 391.73 365.053 393.434 363.988C395.139 362.911 397.039 362.372 399.134 362.372C400.732 362.372 402.046 362.644 403.076 363.189C404.106 363.721 404.922 364.367 405.526 365.124C406.13 365.87 406.597 366.574 406.929 367.237H407.195V353.636H413.64V390H407.319V385.703H406.929C406.597 386.366 406.118 387.07 405.491 387.816C404.863 388.55 404.035 389.177 403.005 389.698C401.975 390.219 400.679 390.479 399.116 390.479ZM400.91 385.206C402.271 385.206 403.431 384.839 404.39 384.105C405.349 383.359 406.077 382.323 406.574 380.998C407.071 379.672 407.319 378.127 407.319 376.364C407.319 374.6 407.071 373.067 406.574 371.765C406.088 370.463 405.366 369.451 404.407 368.729C403.461 368.006 402.295 367.645 400.91 367.645C399.477 367.645 398.282 368.018 397.323 368.764C396.364 369.51 395.642 370.54 395.157 371.854C394.671 373.167 394.429 374.671 394.429 376.364C394.429 378.068 394.671 379.589 395.157 380.927C395.654 382.252 396.382 383.3 397.341 384.069C398.311 384.827 399.501 385.206 400.91 385.206Z" fill="url(#paint7_linear_39_21)"/>
<path d="M371.431 390.533C368.696 390.533 366.335 389.964 364.346 388.828C362.369 387.68 360.848 386.058 359.783 383.963C358.718 381.856 358.185 379.376 358.185 376.523C358.185 373.718 358.718 371.256 359.783 369.137C360.86 367.006 362.364 365.349 364.293 364.165C366.222 362.97 368.489 362.372 371.093 362.372C372.774 362.372 374.36 362.644 375.852 363.189C377.355 363.722 378.681 364.55 379.829 365.675C380.989 366.799 381.901 368.231 382.564 369.972C383.227 371.7 383.558 373.759 383.558 376.15V378.121H361.204V373.789H377.397C377.385 372.558 377.119 371.463 376.598 370.504C376.077 369.534 375.349 368.77 374.414 368.214C373.49 367.657 372.413 367.379 371.182 367.379C369.868 367.379 368.714 367.699 367.72 368.338C366.726 368.965 365.95 369.794 365.394 370.824C364.849 371.842 364.571 372.96 364.559 374.18V377.962C364.559 379.548 364.849 380.909 365.429 382.045C366.009 383.17 366.82 384.034 367.862 384.638C368.904 385.23 370.123 385.525 371.52 385.525C372.455 385.525 373.301 385.395 374.059 385.135C374.816 384.863 375.473 384.466 376.03 383.945C376.586 383.424 377.006 382.779 377.29 382.01L383.292 382.685C382.913 384.271 382.191 385.656 381.125 386.839C380.072 388.011 378.722 388.923 377.077 389.574C375.432 390.213 373.55 390.533 371.431 390.533Z" fill="url(#paint8_linear_39_21)"/>
<path d="M354.274 362.727V367.699H338.596V362.727H354.274ZM342.467 356.193H348.895V381.797C348.895 382.661 349.025 383.324 349.285 383.785C349.557 384.235 349.912 384.543 350.35 384.709C350.788 384.874 351.274 384.957 351.806 384.957C352.209 384.957 352.576 384.928 352.907 384.869C353.251 384.809 353.511 384.756 353.689 384.709L354.772 389.734C354.428 389.852 353.937 389.982 353.298 390.124C352.671 390.266 351.901 390.349 350.99 390.373C349.38 390.42 347.93 390.177 346.64 389.645C345.349 389.1 344.325 388.26 343.568 387.124C342.822 385.987 342.455 384.567 342.467 382.862V356.193Z" fill="url(#paint9_linear_39_21)"/>
<path d="M319.793 390.55C318.065 390.55 316.508 390.243 315.123 389.627C313.75 389 312.661 388.076 311.856 386.857C311.063 385.638 310.667 384.135 310.667 382.347C310.667 380.808 310.951 379.536 311.519 378.53C312.087 377.524 312.862 376.719 313.845 376.115C314.827 375.511 315.934 375.056 317.165 374.748C318.408 374.428 319.692 374.197 321.018 374.055C322.616 373.89 323.912 373.742 324.907 373.611C325.901 373.469 326.623 373.256 327.073 372.972C327.534 372.676 327.765 372.221 327.765 371.605V371.498C327.765 370.161 327.369 369.125 326.576 368.391C325.783 367.657 324.64 367.29 323.149 367.29C321.574 367.29 320.326 367.634 319.402 368.32C318.491 369.007 317.875 369.818 317.556 370.753L311.554 369.9C312.028 368.243 312.809 366.858 313.898 365.746C314.987 364.621 316.319 363.781 317.893 363.224C319.467 362.656 321.207 362.372 323.113 362.372C324.427 362.372 325.735 362.526 327.037 362.834C328.339 363.141 329.529 363.65 330.606 364.361C331.683 365.059 332.547 366.012 333.198 367.219C333.861 368.427 334.193 369.936 334.193 371.747V390H328.014V386.253H327.801C327.41 387.011 326.86 387.721 326.149 388.384C325.451 389.035 324.569 389.562 323.504 389.964C322.45 390.355 321.213 390.55 319.793 390.55ZM321.462 385.827C322.752 385.827 323.871 385.573 324.818 385.064C325.765 384.543 326.493 383.856 327.002 383.004C327.523 382.152 327.783 381.223 327.783 380.217V377.003C327.582 377.168 327.238 377.322 326.753 377.464C326.28 377.606 325.747 377.731 325.155 377.837C324.563 377.944 323.977 378.038 323.397 378.121C322.817 378.204 322.314 378.275 321.888 378.334C320.929 378.465 320.071 378.678 319.314 378.974C318.556 379.27 317.958 379.684 317.52 380.217C317.082 380.737 316.863 381.412 316.863 382.241C316.863 383.424 317.295 384.318 318.159 384.922C319.024 385.525 320.124 385.827 321.462 385.827Z" fill="url(#paint10_linear_39_21)"/>
<path d="M292.609 390V362.727H298.841V367.273H299.125C299.622 365.698 300.475 364.485 301.682 363.633C302.901 362.769 304.292 362.337 305.855 362.337C306.21 362.337 306.606 362.354 307.044 362.39C307.494 362.414 307.867 362.455 308.163 362.514V368.427C307.891 368.332 307.459 368.249 306.867 368.178C306.287 368.095 305.724 368.054 305.18 368.054C304.008 368.054 302.955 368.308 302.019 368.817C301.096 369.315 300.368 370.007 299.835 370.895C299.303 371.783 299.036 372.807 299.036 373.967V390H292.609Z" fill="url(#paint11_linear_39_21)"/>
<path d="M273.22 400.795C270.911 400.795 268.929 400.482 267.271 399.854C265.614 399.239 264.283 398.41 263.276 397.369C262.27 396.327 261.572 395.173 261.181 393.906L266.97 392.503C267.23 393.036 267.609 393.563 268.106 394.084C268.603 394.616 269.272 395.054 270.112 395.398C270.965 395.753 272.036 395.93 273.326 395.93C275.149 395.93 276.658 395.486 277.854 394.599C279.049 393.723 279.647 392.279 279.647 390.266V385.099H279.328C278.996 385.762 278.511 386.443 277.872 387.141C277.244 387.84 276.41 388.426 275.368 388.899C274.338 389.373 273.042 389.609 271.48 389.609C269.384 389.609 267.485 389.118 265.78 388.136C264.087 387.141 262.738 385.662 261.732 383.697C260.737 381.72 260.24 379.246 260.24 376.275C260.24 373.28 260.737 370.753 261.732 368.693C262.738 366.622 264.093 365.053 265.798 363.988C267.502 362.911 269.402 362.372 271.497 362.372C273.095 362.372 274.409 362.644 275.439 363.189C276.481 363.722 277.309 364.367 277.925 365.124C278.54 365.87 279.008 366.574 279.328 367.237H279.683V362.727H286.021V390.444C286.021 392.776 285.465 394.705 284.352 396.232C283.24 397.759 281.719 398.901 279.789 399.659C277.86 400.417 275.67 400.795 273.22 400.795ZM273.273 384.567C274.634 384.567 275.794 384.235 276.753 383.572C277.712 382.909 278.44 381.957 278.937 380.714C279.434 379.471 279.683 377.979 279.683 376.239C279.683 374.523 279.434 373.02 278.937 371.729C278.452 370.439 277.73 369.439 276.771 368.729C275.824 368.007 274.658 367.646 273.273 367.646C271.841 367.646 270.645 368.018 269.686 368.764C268.727 369.51 268.005 370.534 267.52 371.836C267.035 373.126 266.792 374.594 266.792 376.239C266.792 377.908 267.035 379.37 267.52 380.625C268.017 381.868 268.745 382.838 269.704 383.537C270.675 384.223 271.864 384.567 273.273 384.567Z" fill="url(#paint12_linear_39_21)"/>
<path d="M243.794 390.533C241.06 390.533 238.698 389.964 236.71 388.828C234.733 387.68 233.212 386.058 232.146 383.963C231.081 381.856 230.548 379.376 230.548 376.523C230.548 373.718 231.081 371.256 232.146 369.137C233.224 367.006 234.727 365.349 236.656 364.165C238.586 362.97 240.853 362.372 243.457 362.372C245.138 362.372 246.724 362.644 248.215 363.189C249.719 363.722 251.044 364.55 252.193 365.675C253.353 366.799 254.264 368.231 254.927 369.972C255.59 371.7 255.921 373.759 255.921 376.15V378.121H233.567V373.789H249.76C249.748 372.558 249.482 371.463 248.961 370.504C248.44 369.534 247.712 368.77 246.777 368.214C245.854 367.657 244.777 367.379 243.546 367.379C242.232 367.379 241.077 367.699 240.083 368.338C239.089 368.965 238.314 369.794 237.757 370.824C237.213 371.842 236.934 372.96 236.923 374.18V377.962C236.923 379.548 237.213 380.909 237.793 382.045C238.373 383.17 239.184 384.034 240.225 384.638C241.267 385.23 242.486 385.525 243.883 385.525C244.818 385.525 245.664 385.395 246.422 385.135C247.18 384.863 247.836 384.466 248.393 383.945C248.949 383.424 249.369 382.779 249.653 382.01L255.655 382.685C255.276 384.271 254.554 385.656 253.489 386.839C252.435 388.011 251.086 388.923 249.44 389.574C247.795 390.213 245.913 390.533 243.794 390.533Z" fill="url(#paint13_linear_39_21)"/>
<path d="M226.638 362.727V367.699H210.959V362.727H226.638ZM214.83 356.193H221.258V381.797C221.258 382.661 221.388 383.324 221.648 383.785C221.921 384.235 222.276 384.543 222.714 384.709C223.152 384.874 223.637 384.957 224.17 384.957C224.572 384.957 224.939 384.928 225.271 384.869C225.614 384.809 225.874 384.756 226.052 384.709L227.135 389.734C226.792 389.852 226.3 389.982 225.661 390.124C225.034 390.266 224.264 390.349 223.353 390.373C221.743 390.42 220.293 390.177 219.003 389.645C217.713 389.1 216.689 388.26 215.931 387.124C215.185 385.987 214.818 384.567 214.83 382.862V356.193Z" fill="url(#paint14_linear_39_21)"/>
<path d="M188.978 374.02V390H182.55V362.727H188.694V367.361H189.013C189.641 365.834 190.641 364.621 192.014 363.722C193.399 362.822 195.109 362.372 197.145 362.372C199.028 362.372 200.667 362.775 202.064 363.579C203.472 364.384 204.561 365.55 205.331 367.077C206.112 368.604 206.497 370.457 206.485 372.635V390H200.057V373.629C200.057 371.806 199.584 370.38 198.637 369.35C197.702 368.32 196.406 367.805 194.748 367.805C193.624 367.805 192.624 368.054 191.748 368.551C190.884 369.036 190.203 369.741 189.706 370.664C189.221 371.587 188.978 372.706 188.978 374.02Z" fill="url(#paint15_linear_39_21)"/>
<path d="M175.701 353.636V390H169.114V353.636H175.701Z" fill="url(#paint16_linear_39_21)"/>
<path d="M143.328 365.249C143.032 364.29 142.624 363.432 142.103 362.674C141.594 361.905 140.978 361.248 140.256 360.703C139.546 360.159 138.729 359.75 137.806 359.478C136.883 359.194 135.877 359.052 134.788 359.052C132.834 359.052 131.094 359.543 129.567 360.526C128.04 361.508 126.839 362.952 125.963 364.858C125.099 366.752 124.667 369.06 124.667 371.783C124.667 374.529 125.099 376.855 125.963 378.761C126.827 380.666 128.029 382.116 129.567 383.111C131.106 384.093 132.894 384.584 134.93 384.584C136.776 384.584 138.374 384.229 139.724 383.519C141.085 382.809 142.132 381.803 142.866 380.501C143.6 379.187 143.967 377.648 143.967 375.884L145.459 376.115H135.587V370.966H150.342V375.334C150.342 378.447 149.679 381.14 148.353 383.413C147.027 385.685 145.204 387.437 142.884 388.668C140.564 389.888 137.901 390.497 134.894 390.497C131.544 390.497 128.603 389.745 126.07 388.242C123.548 386.727 121.577 384.579 120.157 381.797C118.748 379.003 118.044 375.689 118.044 371.854C118.044 368.918 118.458 366.296 119.287 363.988C120.127 361.68 121.299 359.721 122.802 358.111C124.306 356.489 126.07 355.258 128.094 354.418C130.118 353.565 132.32 353.139 134.699 353.139C136.711 353.139 138.587 353.435 140.327 354.027C142.067 354.607 143.612 355.436 144.962 356.513C146.323 357.59 147.441 358.868 148.317 360.348C149.193 361.828 149.767 363.461 150.04 365.249H143.328Z" fill="url(#paint17_linear_39_21)"/>
<path d="M99.0943 390.497C96.5375 390.497 94.2647 390.059 92.2761 389.183C90.2993 388.307 88.7368 387.088 87.5886 385.526C86.4404 383.963 85.8308 382.158 85.7598 380.11H92.4359C92.4951 381.093 92.8206 381.951 93.4125 382.685C94.0043 383.407 94.7915 383.969 95.774 384.371C96.7565 384.774 97.8573 384.975 99.0765 384.975C100.379 384.975 101.533 384.75 102.539 384.3C103.545 383.839 104.332 383.2 104.9 382.383C105.469 381.566 105.747 380.625 105.735 379.56C105.747 378.459 105.463 377.488 104.883 376.648C104.303 375.807 103.462 375.15 102.361 374.677C101.272 374.203 99.9584 373.967 98.4196 373.967H95.2058V368.888H98.4196C99.6861 368.888 100.793 368.669 101.74 368.231C102.699 367.794 103.45 367.178 103.995 366.385C104.539 365.58 104.806 364.651 104.794 363.597C104.806 362.567 104.575 361.674 104.101 360.916C103.64 360.147 102.983 359.549 102.131 359.123C101.29 358.697 100.302 358.484 99.1653 358.484C98.0526 358.484 97.0228 358.685 96.0758 359.087C95.1289 359.49 94.3654 360.064 93.7853 360.81C93.2053 361.544 92.8975 362.419 92.862 363.437H86.5233C86.5706 361.401 87.1565 359.614 88.2811 358.075C89.4174 356.525 90.9326 355.317 92.8265 354.453C94.7205 353.577 96.8452 353.139 99.2008 353.139C101.627 353.139 103.734 353.595 105.522 354.506C107.321 355.406 108.712 356.619 109.694 358.146C110.677 359.673 111.168 361.36 111.168 363.207C111.18 365.254 110.576 366.971 109.357 368.356C108.15 369.741 106.564 370.646 104.599 371.072V371.356C107.155 371.712 109.114 372.659 110.476 374.197C111.849 375.724 112.529 377.624 112.518 379.897C112.518 381.933 111.938 383.756 110.778 385.366C109.629 386.964 108.043 388.218 106.019 389.13C104.007 390.041 101.698 390.497 99.0943 390.497Z" fill="url(#paint18_linear_39_21)"/>
<path fill-rule="evenodd" clip-rule="evenodd" d="M319.601 126.085L221.623 69.3605C232.763 63.3312 246.238 63.5683 257.16 69.9858L327.962 111.586C362.98 131.86 363.01 182.495 328.015 202.809L216.464 268.464L215.481 248.765L319.636 188.32C343.511 174.461 343.491 139.916 319.601 126.085Z" fill="url(#paint19_linear_39_21)"/>
<path fill-rule="evenodd" clip-rule="evenodd" d="M258.054 296.532L356.074 239.881C355.715 252.562 348.773 264.134 337.765 270.403L266.405 311.036C231.372 331.284 187.59 305.992 187.528 265.47L186.553 135.853L204.072 144.85L204.241 265.445C204.283 293.09 234.153 310.346 258.054 296.532Z" fill="url(#paint20_linear_39_21)"/>
<path fill-rule="evenodd" clip-rule="evenodd" d="M142.271 157.45L142.229 270.825C131.447 264.174 124.915 252.364 125.001 239.678L125.558 157.444C125.573 116.923 169.326 91.58 204.382 111.787L316.908 175.75L300.372 186.452L196.048 126.301C172.131 112.515 142.281 129.805 142.271 157.45Z" fill="url(#paint21_linear_39_21)"/>
<path d="M154.529 106.106C154.529 79.1885 183.612 62.3651 206.879 75.8238L313.3 137.383C318.215 140.368 327.555 149.637 325.588 162.831L198.523 90.325C186.398 83.3114 171.242 92.0785 171.242 106.106V116.285L154.529 118.255L154.529 106.106Z" fill="url(#paint22_linear_39_21)"/>
<path d="M207.052 312.02C183.785 325.478 154.702 308.655 154.702 281.738L154.702 158.619C154.825 152.861 158.167 140.123 170.554 135.232L171.415 281.738C171.415 295.765 186.571 304.532 198.696 297.518L207.494 292.429L217.554 305.945L207.052 312.02Z" fill="url(#paint23_linear_39_21)"/>
<path d="M357.55 163.362C380.817 176.821 380.817 210.468 357.55 223.927L251.129 285.486C246.091 288.258 233.409 291.727 222.988 283.424L349.194 209.425C361.319 202.412 361.319 184.877 349.194 177.864L340.395 172.774L347.048 157.288L357.55 163.362Z" fill="url(#paint24_linear_39_21)"/>
<defs>
<linearGradient id="paint0_linear_39_21" x1="352.696" y1="429.892" x2="328.28" y2="443.516" gradientUnits="userSpaceOnUse">
<stop stop-color="#3468E9"/>
<stop offset="1" stop-color="#1B44AB"/>
</linearGradient>
<linearGradient id="paint1_linear_39_21" x1="324.037" y1="429.768" x2="295.955" y2="456.004" gradientUnits="userSpaceOnUse">
<stop stop-color="#3468E9"/>
<stop offset="1" stop-color="#1B44AB"/>
</linearGradient>
<linearGradient id="paint2_linear_39_21" x1="280.244" y1="429.892" x2="254.804" y2="445.318" gradientUnits="userSpaceOnUse">
<stop stop-color="#3468E9"/>
<stop offset="1" stop-color="#1B44AB"/>
</linearGradient>
<linearGradient id="paint3_linear_39_21" x1="251.455" y1="425.108" x2="231.316" y2="431.521" gradientUnits="userSpaceOnUse">
<stop stop-color="#3468E9"/>
<stop offset="1" stop-color="#1B44AB"/>
</linearGradient>
<linearGradient id="paint4_linear_39_21" x1="232.041" y1="429.892" x2="207.626" y2="443.516" gradientUnits="userSpaceOnUse">
<stop stop-color="#3468E9"/>
<stop offset="1" stop-color="#1B44AB"/>
</linearGradient>
<linearGradient id="paint5_linear_39_21" x1="205.453" y1="432.409" x2="175.798" y2="446.528" gradientUnits="userSpaceOnUse">
<stop stop-color="#3468E9"/>
<stop offset="1" stop-color="#1B44AB"/>
</linearGradient>
<linearGradient id="paint6_linear_39_21" x1="175.504" y1="422.801" x2="144.935" y2="438.15" gradientUnits="userSpaceOnUse">
<stop stop-color="#3468E9"/>
<stop offset="1" stop-color="#1B44AB"/>
</linearGradient>
<linearGradient id="paint7_linear_39_21" x1="413.647" y1="362.166" x2="384.723" y2="375.778" gradientUnits="userSpaceOnUse">
<stop stop-color="#3468E9"/>
<stop offset="1" stop-color="#1B44AB"/>
</linearGradient>
<linearGradient id="paint8_linear_39_21" x1="383.564" y1="368.892" x2="358.125" y2="384.318" gradientUnits="userSpaceOnUse">
<stop stop-color="#3468E9"/>
<stop offset="1" stop-color="#1B44AB"/>
</linearGradient>
<linearGradient id="paint9_linear_39_21" x1="354.776" y1="364.108" x2="334.636" y2="370.521" gradientUnits="userSpaceOnUse">
<stop stop-color="#3468E9"/>
<stop offset="1" stop-color="#1B44AB"/>
</linearGradient>
<linearGradient id="paint10_linear_39_21" x1="334.198" y1="368.896" x2="309.679" y2="382.674" gradientUnits="userSpaceOnUse">
<stop stop-color="#3468E9"/>
<stop offset="1" stop-color="#1B44AB"/>
</linearGradient>
<linearGradient id="paint11_linear_39_21" x1="308.167" y1="368.741" x2="289.509" y2="375.802" gradientUnits="userSpaceOnUse">
<stop stop-color="#3468E9"/>
<stop offset="1" stop-color="#1B44AB"/>
</linearGradient>
<linearGradient id="paint12_linear_39_21" x1="286.028" y1="371.268" x2="256.662" y2="384.529" gradientUnits="userSpaceOnUse">
<stop stop-color="#3468E9"/>
<stop offset="1" stop-color="#1B44AB"/>
</linearGradient>
<linearGradient id="paint13_linear_39_21" x1="255.927" y1="368.892" x2="230.488" y2="384.318" gradientUnits="userSpaceOnUse">
<stop stop-color="#3468E9"/>
<stop offset="1" stop-color="#1B44AB"/>
</linearGradient>
<linearGradient id="paint14_linear_39_21" x1="227.139" y1="364.108" x2="207" y2="370.521" gradientUnits="userSpaceOnUse">
<stop stop-color="#3468E9"/>
<stop offset="1" stop-color="#1B44AB"/>
</linearGradient>
<linearGradient id="paint15_linear_39_21" x1="206.491" y1="368.769" x2="181.996" y2="383.051" gradientUnits="userSpaceOnUse">
<stop stop-color="#3468E9"/>
<stop offset="1" stop-color="#1B44AB"/>
</linearGradient>
<linearGradient id="paint16_linear_39_21" x1="175.703" y1="362.055" x2="166.802" y2="363.14" gradientUnits="userSpaceOnUse">
<stop stop-color="#3468E9"/>
<stop offset="1" stop-color="#1B44AB"/>
</linearGradient>
<linearGradient id="paint17_linear_39_21" x1="150.349" y1="361.788" x2="117.262" y2="381.041" gradientUnits="userSpaceOnUse">
<stop stop-color="#3468E9"/>
<stop offset="1" stop-color="#1B44AB"/>
</linearGradient>
<linearGradient id="paint18_linear_39_21" x1="112.524" y1="361.788" x2="82.7498" y2="376.141" gradientUnits="userSpaceOnUse">
<stop stop-color="#3468E9"/>
<stop offset="1" stop-color="#1B44AB"/>
</linearGradient>
<linearGradient id="paint19_linear_39_21" x1="375.061" y1="123.613" x2="137.268" y2="281.653" gradientUnits="userSpaceOnUse">
<stop stop-color="#3468E9"/>
<stop offset="1" stop-color="#1B44AB"/>
</linearGradient>
<linearGradient id="paint20_linear_39_21" x1="375.061" y1="123.613" x2="137.268" y2="281.653" gradientUnits="userSpaceOnUse">
<stop stop-color="#3468E9"/>
<stop offset="1" stop-color="#1B44AB"/>
</linearGradient>
<linearGradient id="paint21_linear_39_21" x1="375.061" y1="123.613" x2="137.268" y2="281.653" gradientUnits="userSpaceOnUse">
<stop stop-color="#3468E9"/>
<stop offset="1" stop-color="#1B44AB"/>
</linearGradient>
<linearGradient id="paint22_linear_39_21" x1="375.061" y1="123.613" x2="137.268" y2="281.653" gradientUnits="userSpaceOnUse">
<stop stop-color="#3468E9"/>
<stop offset="1" stop-color="#1B44AB"/>
</linearGradient>
<linearGradient id="paint23_linear_39_21" x1="375.061" y1="123.613" x2="137.268" y2="281.653" gradientUnits="userSpaceOnUse">
<stop stop-color="#3468E9"/>
<stop offset="1" stop-color="#1B44AB"/>
</linearGradient>
<linearGradient id="paint24_linear_39_21" x1="375.061" y1="123.613" x2="137.268" y2="281.653" gradientUnits="userSpaceOnUse">
<stop stop-color="#3468E9"/>
<stop offset="1" stop-color="#1B44AB"/>
</linearGradient>
</defs>
</svg>
