<svg width="2200" height="500" viewBox="0 0 2200 500" fill="none" xmlns="http://www.w3.org/2000/svg">
<rect width="2200" height="500" fill="black"/>
<path d="M452.846 306.491C445.175 306.491 438.357 305.178 432.391 302.55C426.461 299.922 421.773 296.264 418.329 291.577C414.884 286.889 413.055 281.474 412.842 275.33H432.871C433.048 278.278 434.025 280.852 435.8 283.054C437.576 285.22 439.938 286.907 442.885 288.114C445.832 289.322 449.135 289.925 452.793 289.925C456.699 289.925 460.161 289.251 463.18 287.901C466.198 286.516 468.56 284.599 470.264 282.148C471.969 279.698 472.803 276.875 472.768 273.679C472.803 270.376 471.951 267.464 470.211 264.943C468.471 262.422 465.95 260.451 462.647 259.031C459.38 257.61 455.438 256.9 450.822 256.9H441.18V241.665H450.822C454.621 241.665 457.942 241.009 460.783 239.695C463.659 238.381 465.914 236.534 467.548 234.155C469.181 231.74 469.98 228.952 469.945 225.792C469.98 222.702 469.288 220.021 467.867 217.749C466.482 215.44 464.511 213.647 461.955 212.369C459.433 211.09 456.468 210.451 453.059 210.451C449.721 210.451 446.631 211.055 443.79 212.262C440.95 213.469 438.659 215.192 436.919 217.429C435.179 219.631 434.256 222.259 434.149 225.312H415.133C415.275 219.205 417.033 213.842 420.406 209.226C423.815 204.574 428.361 200.952 434.043 198.359C439.724 195.732 446.099 194.418 453.165 194.418C460.445 194.418 466.766 195.785 472.129 198.519C477.526 201.218 481.699 204.858 484.646 209.439C487.594 214.02 489.067 219.08 489.067 224.62C489.103 230.763 487.292 235.913 483.634 240.067C480.012 244.222 475.254 246.939 469.359 248.217V249.07C477.029 250.135 482.906 252.976 486.99 257.592C491.109 262.173 493.151 267.873 493.116 274.691C493.116 280.799 491.376 286.268 487.896 291.097C484.451 295.891 479.692 299.656 473.62 302.39C467.583 305.124 460.658 306.491 452.846 306.491ZM585.547 230.746C584.66 227.869 583.434 225.295 581.872 223.022C580.345 220.714 578.498 218.743 576.332 217.109C574.202 215.476 571.751 214.251 568.981 213.434C566.211 212.582 563.193 212.156 559.926 212.156C554.067 212.156 548.846 213.629 544.265 216.577C539.684 219.524 536.08 223.857 533.452 229.574C530.86 235.256 529.564 242.18 529.564 250.348C529.564 258.587 530.86 265.565 533.452 271.282C536.045 276.999 539.649 281.349 544.265 284.332C548.882 287.28 554.244 288.754 560.352 288.754C565.892 288.754 570.686 287.688 574.734 285.558C578.818 283.427 581.961 280.408 584.162 276.502C586.364 272.56 587.465 267.944 587.465 262.653L591.939 263.345H562.323V247.898H606.588V261.001C606.588 270.341 604.599 278.42 600.622 285.238C596.645 292.056 591.176 297.312 584.216 301.005C577.256 304.663 569.265 306.491 560.246 306.491C550.196 306.491 541.371 304.237 533.772 299.727C526.208 295.181 520.295 288.736 516.034 280.391C511.808 272.01 509.695 262.067 509.695 250.561C509.695 241.754 510.938 233.888 513.424 226.964C515.945 220.039 519.461 214.162 523.971 209.332C528.481 204.467 533.772 200.774 539.844 198.253C545.917 195.696 552.522 194.418 559.66 194.418C565.697 194.418 571.325 195.305 576.545 197.081C581.765 198.821 586.4 201.307 590.448 204.538C594.532 207.77 597.888 211.605 600.515 216.044C603.143 220.483 604.866 225.384 605.682 230.746H585.547ZM682.667 195.909V305H662.904V195.909H682.667ZM722.497 257.06V305H703.214V223.182H721.645V237.085H722.604C724.486 232.504 727.486 228.864 731.606 226.165C735.76 223.466 740.892 222.116 747 222.116C752.646 222.116 757.564 223.324 761.755 225.739C765.981 228.153 769.248 231.651 771.556 236.232C773.9 240.813 775.054 246.371 775.018 252.905V305H755.736V255.888C755.736 250.419 754.315 246.14 751.474 243.05C748.669 239.961 744.78 238.416 739.809 238.416C736.435 238.416 733.434 239.162 730.807 240.653C728.214 242.109 726.172 244.222 724.681 246.992C723.225 249.762 722.497 253.118 722.497 257.06ZM835.476 223.182V238.097H788.442V223.182H835.476ZM800.054 203.58H819.336V280.391C819.336 282.983 819.727 284.972 820.508 286.357C821.325 287.706 822.39 288.629 823.704 289.126C825.018 289.624 826.474 289.872 828.072 289.872C829.28 289.872 830.381 289.783 831.375 289.606C832.405 289.428 833.186 289.268 833.719 289.126L836.968 304.201C835.938 304.556 834.464 304.947 832.547 305.373C830.665 305.799 828.356 306.048 825.622 306.119C820.792 306.261 816.442 305.533 812.572 303.935C808.701 302.301 805.629 299.78 803.356 296.371C801.119 292.962 800.018 288.7 800.054 283.587V203.58ZM886.946 306.598C878.743 306.598 871.658 304.893 865.692 301.484C859.762 298.04 855.199 293.175 852.002 286.889C848.806 280.568 847.208 273.129 847.208 264.57C847.208 256.154 848.806 248.768 852.002 242.411C855.234 236.019 859.744 231.048 865.532 227.496C871.321 223.91 878.121 222.116 885.934 222.116C890.976 222.116 895.735 222.933 900.209 224.567C904.719 226.165 908.696 228.651 912.141 232.024C915.621 235.398 918.355 239.695 920.344 244.915C922.333 250.099 923.327 256.278 923.327 263.452V269.364H856.264V256.367H904.843C904.808 252.674 904.009 249.389 902.446 246.513C900.884 243.601 898.7 241.31 895.895 239.641C893.125 237.972 889.893 237.138 886.2 237.138C882.258 237.138 878.796 238.097 875.813 240.014C872.83 241.896 870.504 244.382 868.835 247.472C867.201 250.526 866.367 253.881 866.331 257.539V268.885C866.331 273.643 867.201 277.727 868.941 281.136C870.681 284.51 873.114 287.102 876.239 288.913C879.364 290.689 883.022 291.577 887.212 291.577C890.017 291.577 892.556 291.186 894.829 290.405C897.102 289.588 899.073 288.398 900.742 286.836C902.411 285.273 903.672 283.338 904.524 281.03L922.528 283.054C921.392 287.812 919.225 291.967 916.029 295.518C912.869 299.034 908.821 301.768 903.885 303.722C898.949 305.639 893.302 306.598 886.946 306.598ZM975.222 337.386C968.298 337.386 962.35 336.445 957.378 334.563C952.406 332.717 948.411 330.231 945.393 327.106C942.374 323.981 940.279 320.518 939.107 316.719L956.472 312.511C957.254 314.109 958.39 315.689 959.882 317.251C961.373 318.849 963.379 320.163 965.901 321.193C968.458 322.259 971.671 322.791 975.542 322.791C981.011 322.791 985.539 321.46 989.125 318.796C992.712 316.168 994.505 311.836 994.505 305.799V290.298H993.546C992.552 292.287 991.096 294.329 989.178 296.424C987.296 298.519 984.793 300.277 981.668 301.697C978.578 303.118 974.69 303.828 970.002 303.828C963.717 303.828 958.017 302.354 952.904 299.407C947.825 296.424 943.777 291.985 940.759 286.09C937.776 280.16 936.284 272.738 936.284 263.825C936.284 254.84 937.776 247.259 940.759 241.08C943.777 234.865 947.843 230.16 952.957 226.964C958.07 223.732 963.77 222.116 970.056 222.116C974.85 222.116 978.791 222.933 981.881 224.567C985.006 226.165 987.492 228.1 989.338 230.373C991.185 232.61 992.588 234.723 993.546 236.712H994.612V223.182H1013.63V306.332C1013.63 313.327 1011.96 319.116 1008.62 323.697C1005.28 328.278 1000.72 331.705 994.931 333.977C989.143 336.25 982.573 337.386 975.222 337.386ZM975.382 288.7C979.466 288.7 982.946 287.706 985.823 285.717C988.699 283.729 990.883 280.87 992.374 277.141C993.866 273.413 994.612 268.938 994.612 263.718C994.612 258.569 993.866 254.059 992.374 250.188C990.919 246.317 988.752 243.317 985.876 241.186C983.035 239.02 979.537 237.937 975.382 237.937C971.085 237.937 967.499 239.055 964.622 241.293C961.746 243.53 959.58 246.602 958.124 250.508C956.668 254.379 955.94 258.782 955.94 263.718C955.94 268.725 956.668 273.111 958.124 276.875C959.615 280.604 961.799 283.516 964.676 285.611C967.588 287.67 971.156 288.7 975.382 288.7ZM1033.39 305V223.182H1052.09V236.818H1052.94C1054.43 232.095 1056.99 228.455 1060.61 225.898C1064.27 223.306 1068.44 222.01 1073.13 222.01C1074.19 222.01 1075.38 222.063 1076.7 222.17C1078.05 222.241 1079.16 222.365 1080.05 222.543V240.281C1079.24 239.996 1077.94 239.748 1076.16 239.535C1074.42 239.286 1072.74 239.162 1071.1 239.162C1067.59 239.162 1064.43 239.925 1061.62 241.452C1058.85 242.944 1056.67 245.021 1055.07 247.685C1053.47 250.348 1052.67 253.42 1052.67 256.9V305H1033.39ZM1114.94 306.651C1109.76 306.651 1105.09 305.728 1100.93 303.881C1096.81 301.999 1093.55 299.229 1091.13 295.572C1088.75 291.914 1087.56 287.404 1087.56 282.042C1087.56 277.425 1088.41 273.608 1090.12 270.589C1091.82 267.571 1094.15 265.156 1097.1 263.345C1100.04 261.534 1103.37 260.167 1107.06 259.244C1110.79 258.285 1114.64 257.592 1118.62 257.166C1123.41 256.669 1127.3 256.225 1130.28 255.835C1133.27 255.408 1135.43 254.769 1136.78 253.917C1138.17 253.029 1138.86 251.662 1138.86 249.815V249.496C1138.86 245.483 1137.67 242.376 1135.29 240.174C1132.91 237.972 1129.48 236.871 1125.01 236.871C1120.29 236.871 1116.54 237.901 1113.77 239.961C1111.04 242.021 1109.19 244.453 1108.23 247.259L1090.23 244.702C1091.65 239.73 1093.99 235.575 1097.26 232.237C1100.52 228.864 1104.52 226.342 1109.24 224.673C1113.97 222.969 1119.19 222.116 1124.9 222.116C1128.84 222.116 1132.77 222.578 1136.67 223.501C1140.58 224.425 1144.15 225.952 1147.38 228.082C1150.61 230.178 1153.21 233.036 1155.16 236.658C1157.15 240.281 1158.14 244.808 1158.14 250.241V305H1139.6V293.761H1138.97C1137.79 296.033 1136.14 298.164 1134.01 300.153C1131.92 302.106 1129.27 303.686 1126.07 304.893C1122.91 306.065 1119.2 306.651 1114.94 306.651ZM1119.95 292.482C1123.82 292.482 1127.18 291.719 1130.02 290.192C1132.86 288.629 1135.04 286.57 1136.57 284.013C1138.13 281.456 1138.91 278.668 1138.91 275.65V266.009C1138.31 266.506 1137.28 266.967 1135.82 267.393C1134.4 267.82 1132.8 268.192 1131.03 268.512C1129.25 268.832 1127.5 269.116 1125.76 269.364C1124.02 269.613 1122.51 269.826 1121.23 270.004C1118.35 270.394 1115.78 271.033 1113.5 271.921C1111.23 272.809 1109.44 274.052 1108.12 275.65C1106.81 277.212 1106.15 279.237 1106.15 281.722C1106.15 285.273 1107.45 287.955 1110.04 289.766C1112.63 291.577 1115.94 292.482 1119.95 292.482ZM1218.39 223.182V238.097H1171.35V223.182H1218.39ZM1182.96 203.58H1202.25V280.391C1202.25 282.983 1202.64 284.972 1203.42 286.357C1204.24 287.706 1205.3 288.629 1206.61 289.126C1207.93 289.624 1209.38 289.872 1210.98 289.872C1212.19 289.872 1213.29 289.783 1214.28 289.606C1215.31 289.428 1216.1 289.268 1216.63 289.126L1219.88 304.201C1218.85 304.556 1217.37 304.947 1215.46 305.373C1213.57 305.799 1211.27 306.048 1208.53 306.119C1203.7 306.261 1199.35 305.533 1195.48 303.935C1191.61 302.301 1188.54 299.78 1186.27 296.371C1184.03 292.962 1182.93 288.7 1182.96 283.587V203.58ZM1269.86 306.598C1261.65 306.598 1254.57 304.893 1248.6 301.484C1242.67 298.04 1238.11 293.175 1234.91 286.889C1231.72 280.568 1230.12 273.129 1230.12 264.57C1230.12 256.154 1231.72 248.768 1234.91 242.411C1238.14 236.019 1242.65 231.048 1248.44 227.496C1254.23 223.91 1261.03 222.116 1268.84 222.116C1273.89 222.116 1278.64 222.933 1283.12 224.567C1287.63 226.165 1291.61 228.651 1295.05 232.024C1298.53 235.398 1301.27 239.695 1303.25 244.915C1305.24 250.099 1306.24 256.278 1306.24 263.452V269.364H1239.17V256.367H1287.75C1287.72 252.674 1286.92 249.389 1285.36 246.513C1283.79 243.601 1281.61 241.31 1278.8 239.641C1276.03 237.972 1272.8 237.138 1269.11 237.138C1265.17 237.138 1261.71 238.097 1258.72 240.014C1255.74 241.896 1253.41 244.382 1251.75 247.472C1250.11 250.526 1249.28 253.881 1249.24 257.539V268.885C1249.24 273.643 1250.11 277.727 1251.85 281.136C1253.59 284.51 1256.02 287.102 1259.15 288.913C1262.27 290.689 1265.93 291.577 1270.12 291.577C1272.93 291.577 1275.47 291.186 1277.74 290.405C1280.01 289.588 1281.98 288.398 1283.65 286.836C1285.32 285.273 1286.58 283.338 1287.43 281.03L1305.44 283.054C1304.3 287.812 1302.14 291.967 1298.94 295.518C1295.78 299.034 1291.73 301.768 1286.79 303.722C1281.86 305.639 1276.21 306.598 1269.86 306.598ZM1352.91 306.438C1346.48 306.438 1340.73 304.787 1335.65 301.484C1330.58 298.182 1326.56 293.388 1323.62 287.102C1320.67 280.817 1319.19 273.182 1319.19 264.197C1319.19 255.107 1320.69 247.436 1323.67 241.186C1326.69 234.901 1330.75 230.16 1335.87 226.964C1340.98 223.732 1346.68 222.116 1352.97 222.116C1357.76 222.116 1361.7 222.933 1364.79 224.567C1367.88 226.165 1370.33 228.1 1372.14 230.373C1373.95 232.61 1375.36 234.723 1376.35 236.712H1377.15V195.909H1396.48V305H1377.52V292.109H1376.35C1375.36 294.098 1373.92 296.211 1372.04 298.448C1370.15 300.65 1367.67 302.532 1364.58 304.094C1361.49 305.657 1357.6 306.438 1352.91 306.438ZM1358.29 290.618C1362.38 290.618 1365.86 289.517 1368.73 287.315C1371.61 285.078 1373.79 281.971 1375.28 277.994C1376.78 274.016 1377.52 269.382 1377.52 264.091C1377.52 258.8 1376.78 254.201 1375.28 250.295C1373.83 246.388 1371.66 243.352 1368.79 241.186C1365.95 239.02 1362.45 237.937 1358.29 237.937C1354 237.937 1350.41 239.055 1347.53 241.293C1344.66 243.53 1342.49 246.619 1341.03 250.561C1339.58 254.503 1338.85 259.013 1338.85 264.091C1338.85 269.205 1339.58 273.768 1341.03 277.781C1342.53 281.758 1344.71 284.901 1347.59 287.209C1350.5 289.482 1354.07 290.618 1358.29 290.618ZM1514.38 225.898C1513.88 221.246 1511.79 217.624 1508.09 215.032C1504.44 212.44 1499.68 211.143 1493.82 211.143C1489.7 211.143 1486.16 211.765 1483.22 213.008C1480.27 214.251 1478.01 215.937 1476.45 218.068C1474.89 220.199 1474.09 222.631 1474.06 225.366C1474.06 227.638 1474.57 229.609 1475.6 231.278C1476.67 232.947 1478.1 234.368 1479.91 235.54C1481.73 236.676 1483.73 237.635 1485.93 238.416C1488.14 239.197 1490.35 239.854 1492.59 240.387L1502.82 242.944C1506.94 243.903 1510.9 245.199 1514.7 246.832C1518.53 248.466 1521.96 250.526 1524.98 253.011C1528.03 255.497 1530.45 258.498 1532.22 262.013C1534 265.529 1534.89 269.648 1534.89 274.371C1534.89 280.763 1533.25 286.392 1529.99 291.257C1526.72 296.087 1522 299.869 1515.82 302.603C1509.67 305.302 1502.23 306.651 1493.5 306.651C1485.01 306.651 1477.64 305.337 1471.39 302.71C1465.18 300.082 1460.31 296.246 1456.8 291.204C1453.32 286.161 1451.43 280.018 1451.15 272.773H1470.59C1470.88 276.573 1472.05 279.734 1474.11 282.255C1476.17 284.776 1478.85 286.658 1482.15 287.901C1485.49 289.144 1489.22 289.766 1493.34 289.766C1497.63 289.766 1501.4 289.126 1504.63 287.848C1507.9 286.534 1510.45 284.723 1512.3 282.415C1514.15 280.071 1515.09 277.337 1515.12 274.212C1515.09 271.371 1514.25 269.027 1512.62 267.18C1510.99 265.298 1508.7 263.736 1505.75 262.493C1502.84 261.214 1499.43 260.078 1495.52 259.084L1483.11 255.888C1474.13 253.58 1467.02 250.082 1461.8 245.394C1456.62 240.671 1454.03 234.403 1454.03 226.591C1454.03 220.163 1455.77 214.535 1459.25 209.705C1462.76 204.876 1467.54 201.129 1473.58 198.466C1479.61 195.767 1486.45 194.418 1494.08 194.418C1501.82 194.418 1508.61 195.767 1514.43 198.466C1520.29 201.129 1524.89 204.84 1528.23 209.599C1531.57 214.322 1533.29 219.755 1533.39 225.898H1514.38ZM1563.64 335.682C1561.01 335.682 1558.58 335.469 1556.34 335.043C1554.14 334.652 1552.38 334.19 1551.07 333.658L1555.54 318.636C1558.35 319.453 1560.85 319.844 1563.05 319.808C1565.25 319.773 1567.19 319.08 1568.86 317.731C1570.56 316.417 1572 314.215 1573.17 311.126L1574.82 306.705L1545.15 223.182H1565.61L1584.46 284.972H1585.32L1604.23 223.182H1624.73L1591.97 314.908C1590.45 319.24 1588.42 322.951 1585.9 326.04C1583.38 329.165 1580.29 331.545 1576.63 333.178C1573.01 334.847 1568.68 335.682 1563.64 335.682ZM1702.74 244.808L1685.17 246.726C1684.67 244.95 1683.8 243.281 1682.56 241.719C1681.35 240.156 1679.71 238.896 1677.66 237.937C1675.6 236.978 1673.07 236.499 1670.09 236.499C1666.08 236.499 1662.7 237.369 1659.97 239.109C1657.27 240.849 1655.94 243.104 1655.98 245.874C1655.94 248.253 1656.81 250.188 1658.59 251.68C1660.4 253.171 1663.38 254.396 1667.53 255.355L1681.49 258.338C1689.23 260.007 1694.98 262.653 1698.75 266.275C1702.55 269.897 1704.47 274.638 1704.5 280.497C1704.47 285.646 1702.96 290.192 1699.97 294.134C1697.03 298.04 1692.92 301.094 1687.67 303.295C1682.41 305.497 1676.38 306.598 1669.56 306.598C1659.54 306.598 1651.48 304.503 1645.38 300.312C1639.27 296.087 1635.63 290.21 1634.46 282.681L1653.26 280.87C1654.11 284.563 1655.92 287.351 1658.69 289.233C1661.46 291.115 1665.07 292.056 1669.51 292.056C1674.09 292.056 1677.76 291.115 1680.53 289.233C1683.34 287.351 1684.74 285.025 1684.74 282.255C1684.74 279.911 1683.83 277.976 1682.02 276.449C1680.25 274.922 1677.48 273.75 1673.71 272.933L1659.76 270.004C1651.91 268.37 1646.1 265.618 1642.34 261.747C1638.57 257.841 1636.71 252.905 1636.75 246.939C1636.71 241.896 1638.08 237.528 1640.85 233.835C1643.65 230.107 1647.54 227.23 1652.51 225.206C1657.52 223.146 1663.29 222.116 1669.82 222.116C1679.41 222.116 1686.96 224.158 1692.46 228.242C1698 232.326 1701.43 237.848 1702.74 244.808ZM1761.26 223.182V238.097H1714.22V223.182H1761.26ZM1725.84 203.58H1745.12V280.391C1745.12 282.983 1745.51 284.972 1746.29 286.357C1747.11 287.706 1748.17 288.629 1749.49 289.126C1750.8 289.624 1752.26 289.872 1753.85 289.872C1755.06 289.872 1756.16 289.783 1757.16 289.606C1758.19 289.428 1758.97 289.268 1759.5 289.126L1762.75 304.201C1761.72 304.556 1760.25 304.947 1758.33 305.373C1756.45 305.799 1754.14 306.048 1751.4 306.119C1746.57 306.261 1742.22 305.533 1738.35 303.935C1734.48 302.301 1731.41 299.78 1729.14 296.371C1726.9 292.962 1725.8 288.7 1725.84 283.587V203.58ZM1812.73 306.598C1804.52 306.598 1797.44 304.893 1791.47 301.484C1785.54 298.04 1780.98 293.175 1777.78 286.889C1774.59 280.568 1772.99 273.129 1772.99 264.57C1772.99 256.154 1774.59 248.768 1777.78 242.411C1781.02 236.019 1785.53 231.048 1791.31 227.496C1797.1 223.91 1803.9 222.116 1811.71 222.116C1816.76 222.116 1821.52 222.933 1825.99 224.567C1830.5 226.165 1834.48 228.651 1837.92 232.024C1841.4 235.398 1844.14 239.695 1846.13 244.915C1848.11 250.099 1849.11 256.278 1849.11 263.452V269.364H1782.05V256.367H1830.62C1830.59 252.674 1829.79 249.389 1828.23 246.513C1826.67 243.601 1824.48 241.31 1821.68 239.641C1818.91 237.972 1815.67 237.138 1811.98 237.138C1808.04 237.138 1804.58 238.097 1801.59 240.014C1798.61 241.896 1796.29 244.382 1794.62 247.472C1792.98 250.526 1792.15 253.881 1792.11 257.539V268.885C1792.11 273.643 1792.98 277.727 1794.72 281.136C1796.46 284.51 1798.9 287.102 1802.02 288.913C1805.15 290.689 1808.8 291.577 1812.99 291.577C1815.8 291.577 1818.34 291.186 1820.61 290.405C1822.88 289.588 1824.85 288.398 1826.52 286.836C1828.19 285.273 1829.45 283.338 1830.31 281.03L1848.31 283.054C1847.17 287.812 1845.01 291.967 1841.81 295.518C1838.65 299.034 1834.6 301.768 1829.67 303.722C1824.73 305.639 1819.08 306.598 1812.73 306.598ZM1865.42 305V223.182H1883.85V237.085H1884.81C1886.52 232.397 1889.34 228.739 1893.28 226.112C1897.22 223.448 1901.93 222.116 1907.4 222.116C1912.94 222.116 1917.61 223.466 1921.41 226.165C1925.24 228.828 1927.94 232.468 1929.5 237.085H1930.35C1932.16 232.539 1935.22 228.917 1939.52 226.218C1943.85 223.484 1948.98 222.116 1954.91 222.116C1962.44 222.116 1968.58 224.496 1973.34 229.254C1978.1 234.013 1980.48 240.955 1980.48 250.082V305H1961.14V253.065C1961.14 247.987 1959.79 244.276 1957.09 241.932C1954.4 239.553 1951.09 238.363 1947.19 238.363C1942.53 238.363 1938.89 239.819 1936.27 242.731C1933.67 245.607 1932.38 249.354 1932.38 253.97V305H1913.47V252.266C1913.47 248.04 1912.19 244.666 1909.63 242.145C1907.11 239.624 1903.81 238.363 1899.73 238.363C1896.96 238.363 1894.43 239.073 1892.16 240.494C1889.89 241.879 1888.08 243.849 1886.73 246.406C1885.38 248.928 1884.7 251.875 1884.7 255.249V305H1865.42ZM2064.71 244.808L2047.13 246.726C2046.63 244.95 2045.76 243.281 2044.52 241.719C2043.31 240.156 2041.68 238.896 2039.62 237.937C2037.56 236.978 2035.04 236.499 2032.05 236.499C2028.04 236.499 2024.67 237.369 2021.93 239.109C2019.23 240.849 2017.9 243.104 2017.94 245.874C2017.9 248.253 2018.77 250.188 2020.55 251.68C2022.36 253.171 2025.34 254.396 2029.5 255.355L2043.45 258.338C2051.19 260.007 2056.95 262.653 2060.71 266.275C2064.51 269.897 2066.43 274.638 2066.46 280.497C2066.43 285.646 2064.92 290.192 2061.94 294.134C2058.99 298.04 2054.89 301.094 2049.63 303.295C2044.38 305.497 2038.34 306.598 2031.52 306.598C2021.51 306.598 2013.45 304.503 2007.34 300.312C2001.23 296.087 1997.59 290.21 1996.42 282.681L2015.22 280.87C2016.07 284.563 2017.88 287.351 2020.65 289.233C2023.42 291.115 2027.03 292.056 2031.47 292.056C2036.05 292.056 2039.72 291.115 2042.49 289.233C2045.3 287.351 2046.7 285.025 2046.7 282.255C2046.7 279.911 2045.8 277.976 2043.99 276.449C2042.21 274.922 2039.44 273.75 2035.68 272.933L2021.72 270.004C2013.87 268.37 2008.07 265.618 2004.3 261.747C2000.54 257.841 1998.67 252.905 1998.71 246.939C1998.67 241.896 2000.04 237.528 2002.81 233.835C2005.62 230.107 2009.5 227.23 2014.48 225.206C2019.48 223.146 2025.25 222.116 2031.79 222.116C2041.38 222.116 2048.92 224.158 2054.43 228.242C2059.97 232.326 2063.39 237.848 2064.71 244.808Z" fill="white"/>
<path fill-rule="evenodd" clip-rule="evenodd" d="M287.601 184.085L189.623 127.361C200.763 121.331 214.238 121.568 225.16 127.986L295.962 169.586C330.98 189.86 331.01 240.495 296.015 260.809L184.464 326.464L183.481 306.765L287.636 246.32C311.511 232.461 311.491 197.916 287.601 184.085Z" fill="white"/>
<path fill-rule="evenodd" clip-rule="evenodd" d="M226.054 354.532L324.074 297.881C323.715 310.562 316.773 322.134 305.765 328.403L234.405 369.036C199.372 389.284 155.59 363.992 155.528 323.47L154.553 193.853L172.072 202.85L172.241 323.445C172.283 351.09 202.153 368.346 226.054 354.532Z" fill="white"/>
<path fill-rule="evenodd" clip-rule="evenodd" d="M110.271 215.45L110.229 328.825C99.4471 322.174 92.9149 310.364 93.0008 297.678L93.5581 215.444C93.5731 174.923 137.326 149.58 172.382 169.787L284.908 233.75L268.372 244.452L164.048 184.301C140.131 170.515 110.281 187.805 110.271 215.45Z" fill="white"/>
<path d="M122.529 164.106C122.529 137.188 151.612 120.365 174.879 133.824L281.3 195.383C286.215 198.368 295.555 207.637 293.588 220.831L166.523 148.325C154.398 141.311 139.242 150.078 139.242 164.106V174.285L122.529 176.255L122.529 164.106Z" fill="white"/>
<path d="M175.052 370.02C151.785 383.478 122.702 366.655 122.702 339.738L122.702 216.619C122.825 210.861 126.167 198.123 138.554 193.232L139.415 339.738C139.415 353.765 154.571 362.532 166.696 355.518L175.494 350.429L185.554 363.945L175.052 370.02Z" fill="white"/>
<path d="M325.55 221.362C348.817 234.821 348.817 268.468 325.55 281.927L219.129 343.486C214.091 346.258 201.409 349.727 190.988 341.424L317.194 267.425C329.319 260.412 329.319 242.877 317.194 235.864L308.395 230.774L315.048 215.288L325.55 221.362Z" fill="white"/>
</svg>
