<svg width="4587" height="1089" viewBox="0 0 4587 1089" fill="none" xmlns="http://www.w3.org/2000/svg">
<rect width="4586.87" height="1089" fill="white"/>
<path d="M920.959 665.55C904.252 665.55 889.402 662.688 876.409 656.965C863.492 651.242 853.283 643.275 845.78 633.066C838.278 622.856 834.295 611.062 833.831 597.681H877.453C877.839 604.101 879.966 609.708 883.834 614.503C887.701 619.221 892.844 622.895 899.264 625.525C905.683 628.154 912.876 629.469 920.843 629.469C929.35 629.469 936.891 628 943.466 625.061C950.04 622.044 955.183 617.868 958.896 612.531C962.608 607.194 964.426 601.046 964.348 594.085C964.426 586.892 962.57 580.549 958.78 575.058C954.99 569.567 949.498 565.274 942.305 562.18C935.19 559.087 926.605 557.54 916.55 557.54H895.551V524.359H916.55C924.826 524.359 932.057 522.928 938.245 520.067C944.51 517.205 949.421 513.183 952.979 508.001C956.537 502.742 958.277 496.67 958.2 489.787C958.277 483.058 956.769 477.218 953.675 472.268C950.659 467.241 946.366 463.335 940.797 460.551C935.306 457.766 928.848 456.374 921.423 456.374C914.152 456.374 907.423 457.689 901.236 460.319C895.048 462.948 890.06 466.699 886.27 471.572C882.48 476.367 880.469 482.091 880.237 488.742H838.82C839.129 475.439 842.957 463.76 850.305 453.706C857.73 443.574 867.63 435.685 880.005 430.038C892.38 424.315 906.263 421.453 921.655 421.453C937.51 421.453 951.277 424.431 962.956 430.387C974.712 436.265 983.8 444.192 990.22 454.17C996.639 464.147 999.849 475.169 999.849 487.234C999.927 500.615 995.982 511.829 988.016 520.879C980.127 529.928 969.762 535.845 956.923 538.629V540.485C973.63 542.806 986.43 548.993 995.325 559.048C1004.3 569.025 1008.74 581.439 1008.67 596.289C1008.67 609.592 1004.88 621.503 997.297 632.022C989.795 642.463 979.43 650.662 966.205 656.617C953.056 662.572 937.974 665.55 920.959 665.55ZM1206.72 500.576C1204.78 494.311 1202.11 488.704 1198.71 483.754C1195.38 478.726 1191.36 474.434 1186.64 470.876C1182 467.318 1176.67 464.65 1170.63 462.871C1164.6 461.015 1158.03 460.087 1150.91 460.087C1138.15 460.087 1126.78 463.296 1116.8 469.716C1106.83 476.135 1098.98 485.571 1093.25 498.024C1087.61 510.399 1084.78 525.481 1084.78 543.27C1084.78 561.213 1087.61 576.412 1093.25 588.864C1098.9 601.316 1106.75 610.791 1116.8 617.288C1126.86 623.707 1138.54 626.917 1151.84 626.917C1163.91 626.917 1174.35 624.597 1183.16 619.956C1192.06 615.315 1198.9 608.741 1203.7 600.233C1208.49 591.648 1210.89 581.594 1210.89 570.069L1220.64 571.578H1156.13V537.933H1252.54V566.473C1252.54 586.814 1248.21 604.41 1239.55 619.26C1230.89 634.11 1218.97 645.557 1203.82 653.601C1188.66 661.567 1171.25 665.55 1151.61 665.55C1129.72 665.55 1110.5 660.639 1093.95 650.816C1077.47 640.916 1064.6 626.878 1055.32 608.703C1046.11 590.449 1041.51 568.793 1041.51 543.734C1041.51 524.553 1044.22 507.421 1049.63 492.339C1055.12 477.257 1062.78 464.456 1072.6 453.938C1082.42 443.342 1093.95 435.298 1107.17 429.806C1120.4 424.238 1134.79 421.453 1150.33 421.453C1163.48 421.453 1175.74 423.387 1187.11 427.254C1198.48 431.044 1208.57 436.458 1217.39 443.496C1226.28 450.535 1233.59 458.888 1239.32 468.556C1245.04 478.224 1248.79 488.897 1250.57 500.576H1206.72ZM1411.71 424.702V662.302H1368.67V424.702H1411.71ZM1495.19 557.888V662.302H1453.19V484.102H1493.33V514.382H1495.42C1499.52 504.404 1506.06 496.477 1515.03 490.599C1524.08 484.721 1535.25 481.781 1548.56 481.781C1560.86 481.781 1571.57 484.411 1580.69 489.671C1589.9 494.93 1597.01 502.548 1602.04 512.526C1607.15 522.503 1609.66 534.607 1609.58 548.838V662.302H1567.58V555.335C1567.58 543.424 1564.49 534.104 1558.3 527.376C1552.19 520.647 1543.72 517.282 1532.9 517.282C1525.55 517.282 1519.01 518.906 1513.29 522.155C1507.64 525.326 1503.2 529.928 1499.95 535.961C1496.78 541.994 1495.19 549.303 1495.19 557.888ZM1737.99 484.102V516.586H1635.55V484.102H1737.99ZM1660.84 441.408H1702.84V608.703C1702.84 614.349 1703.69 618.68 1705.39 621.696C1707.17 624.635 1709.49 626.646 1712.35 627.729C1715.22 628.812 1718.39 629.353 1721.87 629.353C1724.5 629.353 1726.89 629.16 1729.06 628.773C1731.3 628.387 1733 628.038 1734.16 627.729L1741.24 660.562C1739 661.335 1735.79 662.186 1731.61 663.114C1727.51 664.042 1722.49 664.583 1716.53 664.738C1706.01 665.047 1696.54 663.462 1688.11 659.981C1679.68 656.424 1672.99 650.932 1668.04 643.507C1663.16 636.082 1660.77 626.801 1660.84 615.663V441.408ZM1846.83 665.782C1828.96 665.782 1813.53 662.07 1800.54 654.645C1787.62 647.142 1777.68 636.546 1770.72 622.856C1763.76 609.089 1760.28 592.886 1760.28 574.246C1760.28 555.915 1763.76 539.828 1770.72 525.983C1777.76 512.062 1787.58 501.233 1800.19 493.499C1812.79 485.687 1827.61 481.781 1844.62 481.781C1855.6 481.781 1865.97 483.56 1875.71 487.118C1885.54 490.599 1894.2 496.013 1901.7 503.36C1909.28 510.708 1915.24 520.067 1919.57 531.436C1923.9 542.728 1926.06 556.186 1926.06 571.81V584.687H1780V556.379H1885.81C1885.73 548.336 1883.99 541.181 1880.59 534.917C1877.18 528.574 1872.43 523.586 1866.32 519.951C1860.28 516.315 1853.25 514.498 1845.2 514.498C1836.62 514.498 1829.08 516.586 1822.58 520.763C1816.08 524.862 1811.02 530.276 1807.38 537.005C1803.82 543.656 1802.01 550.965 1801.93 558.932V583.643C1801.93 594.007 1803.82 602.902 1807.61 610.327C1811.4 617.674 1816.7 623.321 1823.51 627.265C1830.31 631.132 1838.28 633.066 1847.41 633.066C1853.52 633.066 1859.05 632.215 1864 630.513C1868.95 628.735 1873.24 626.144 1876.87 622.74C1880.51 619.337 1883.25 615.122 1885.11 610.095L1924.32 614.503C1921.85 624.867 1917.13 633.917 1910.17 641.651C1903.29 649.308 1894.47 655.263 1883.72 659.517C1872.97 663.694 1860.67 665.782 1846.83 665.782ZM2035.83 732.839C2020.74 732.839 2007.79 730.79 1996.96 726.69C1986.13 722.669 1977.43 717.254 1970.86 710.448C1964.28 703.642 1959.72 696.101 1957.17 687.825L1994.99 678.66C1996.69 682.14 1999.16 685.582 2002.41 688.985C2005.66 692.466 2010.03 695.328 2015.52 697.571C2021.09 699.891 2028.09 701.051 2036.52 701.051C2048.43 701.051 2058.29 698.151 2066.11 692.35C2073.92 686.626 2077.82 677.19 2077.82 664.042V630.281H2075.74C2073.57 634.613 2070.4 639.06 2066.22 643.623C2062.12 648.187 2056.67 652.015 2049.86 655.109C2043.13 658.203 2034.67 659.749 2024.46 659.749C2010.77 659.749 1998.35 656.54 1987.22 650.12C1976.16 643.623 1967.34 633.955 1960.76 621.116C1954.27 608.2 1951.02 592.035 1951.02 572.622C1951.02 553.054 1954.27 536.541 1960.76 523.083C1967.34 509.548 1976.19 499.3 1987.33 492.339C1998.47 485.301 2010.88 481.781 2024.57 481.781C2035.01 481.781 2043.6 483.56 2050.33 487.118C2057.13 490.599 2062.55 494.814 2066.57 499.764C2070.59 504.637 2073.65 509.238 2075.74 513.57H2078.06V484.102H2119.47V665.202C2119.47 680.439 2115.84 693.046 2108.57 703.023C2101.3 713.001 2091.36 720.464 2078.75 725.414C2066.14 730.364 2051.84 732.839 2035.83 732.839ZM2036.17 626.801C2045.07 626.801 2052.65 624.635 2058.91 620.304C2065.18 615.973 2069.93 609.747 2073.18 601.626C2076.43 593.504 2078.06 583.759 2078.06 572.39C2078.06 561.175 2076.43 551.352 2073.18 542.922C2070.01 534.491 2065.29 527.956 2059.03 523.315C2052.84 518.597 2045.22 516.238 2036.17 516.238C2026.82 516.238 2019 518.674 2012.74 523.547C2006.47 528.42 2001.76 535.11 1998.58 543.618C1995.41 552.048 1993.83 561.639 1993.83 572.39C1993.83 583.295 1995.41 592.847 1998.58 601.046C2001.83 609.167 2006.59 615.509 2012.85 620.072C2019.2 624.558 2026.97 626.801 2036.17 626.801ZM2159.25 662.302V484.102H2199.97V513.802H2201.83C2205.07 503.515 2210.64 495.587 2218.53 490.019C2226.5 484.372 2235.59 481.549 2245.8 481.549C2248.12 481.549 2250.71 481.665 2253.57 481.897C2256.51 482.052 2258.94 482.323 2260.88 482.71V521.343C2259.1 520.724 2256.28 520.183 2252.41 519.719C2248.62 519.177 2244.94 518.906 2241.39 518.906C2233.73 518.906 2226.85 520.569 2220.74 523.895C2214.7 527.144 2209.95 531.668 2206.47 537.469C2202.99 543.27 2201.25 549.96 2201.25 557.54V662.302H2159.25ZM2333.6 665.898C2322.31 665.898 2312.14 663.887 2303.09 659.865C2294.12 655.766 2287 649.733 2281.74 641.767C2276.56 633.801 2273.97 623.978 2273.97 612.299C2273.97 602.244 2275.82 593.93 2279.54 587.356C2283.25 580.781 2288.32 575.522 2294.74 571.578C2301.16 567.633 2308.39 564.655 2316.43 562.644C2324.55 560.556 2332.94 559.048 2341.61 558.12C2352.05 557.037 2360.52 556.07 2367.01 555.219C2373.51 554.291 2378.23 552.899 2381.17 551.043C2384.18 549.109 2385.69 546.131 2385.69 542.11V541.413C2385.69 532.674 2383.1 525.906 2377.92 521.111C2372.74 516.315 2365.27 513.918 2355.53 513.918C2345.24 513.918 2337.08 516.161 2331.05 520.647C2325.09 525.133 2321.07 530.431 2318.98 536.541L2279.77 530.972C2282.86 520.144 2287.97 511.095 2295.08 503.824C2302.2 496.477 2310.9 490.985 2321.19 487.35C2331.47 483.638 2342.84 481.781 2355.3 481.781C2363.88 481.781 2372.43 482.787 2380.94 484.798C2389.44 486.809 2397.22 490.135 2404.25 494.775C2411.29 499.338 2416.94 505.565 2421.19 513.454C2425.52 521.343 2427.69 531.204 2427.69 543.038V662.302H2387.32V637.822H2385.92C2383.37 642.772 2379.77 647.413 2375.13 651.744C2370.57 655.998 2364.81 659.44 2357.85 662.07C2350.96 664.622 2342.88 665.898 2333.6 665.898ZM2344.51 635.038C2352.94 635.038 2360.25 633.375 2366.43 630.049C2372.62 626.646 2377.38 622.16 2380.7 616.592C2384.11 611.023 2385.81 604.951 2385.81 598.377V577.378C2384.49 578.461 2382.25 579.467 2379.08 580.395C2375.99 581.323 2372.5 582.135 2368.64 582.831C2364.77 583.527 2360.94 584.146 2357.15 584.687C2353.36 585.229 2350.07 585.693 2347.29 586.079C2341.03 586.93 2335.42 588.322 2330.47 590.256C2325.52 592.19 2321.61 594.897 2318.75 598.377C2315.89 601.78 2314.46 606.189 2314.46 611.603C2314.46 619.337 2317.28 625.177 2322.93 629.121C2328.57 633.066 2335.77 635.038 2344.51 635.038ZM2555.64 484.102V516.586H2453.19V484.102H2555.64ZM2478.49 441.408H2520.48V608.703C2520.48 614.349 2521.33 618.68 2523.04 621.696C2524.81 624.635 2527.13 626.646 2530 627.729C2532.86 628.812 2536.03 629.353 2539.51 629.353C2542.14 629.353 2544.54 629.16 2546.7 628.773C2548.95 628.387 2550.65 628.038 2551.81 627.729L2558.88 660.562C2556.64 661.335 2553.43 662.186 2549.26 663.114C2545.16 664.042 2540.13 664.583 2534.17 664.738C2523.65 665.047 2514.18 663.462 2505.75 659.981C2497.32 656.424 2490.63 650.932 2485.68 643.507C2480.81 636.082 2478.41 626.801 2478.49 615.663V441.408ZM2664.47 665.782C2646.6 665.782 2631.17 662.07 2618.18 654.645C2605.26 647.142 2595.32 636.546 2588.36 622.856C2581.4 609.089 2577.92 592.886 2577.92 574.246C2577.92 555.915 2581.4 539.828 2588.36 525.983C2595.4 512.062 2605.22 501.233 2617.83 493.499C2630.44 485.687 2645.25 481.781 2662.26 481.781C2673.25 481.781 2683.61 483.56 2693.36 487.118C2703.18 490.599 2711.84 496.013 2719.34 503.36C2726.92 510.708 2732.88 520.067 2737.21 531.436C2741.54 542.728 2743.71 556.186 2743.71 571.81V584.687H2597.64V556.379H2703.45C2703.37 548.336 2701.63 541.181 2698.23 534.917C2694.83 528.574 2690.07 523.586 2683.96 519.951C2677.93 516.315 2670.89 514.498 2662.84 514.498C2654.26 514.498 2646.72 516.586 2640.22 520.763C2633.73 524.862 2628.66 530.276 2625.02 537.005C2621.47 543.656 2619.65 550.965 2619.57 558.932V583.643C2619.57 594.007 2621.47 602.902 2625.26 610.327C2629.05 617.674 2634.34 623.321 2641.15 627.265C2647.96 631.132 2655.92 633.066 2665.05 633.066C2671.16 633.066 2676.69 632.215 2681.64 630.513C2686.59 628.735 2690.88 626.144 2694.52 622.74C2698.15 619.337 2700.9 615.122 2702.75 610.095L2741.97 614.503C2739.49 624.867 2734.77 633.917 2727.81 641.651C2720.93 649.308 2712.11 655.263 2701.36 659.517C2690.61 663.694 2678.31 665.782 2664.47 665.782ZM2842.1 665.434C2828.1 665.434 2815.57 661.838 2804.51 654.645C2793.45 647.452 2784.71 637.01 2778.29 623.321C2771.87 609.631 2768.66 593.002 2768.66 573.434C2768.66 553.634 2771.91 536.928 2778.41 523.315C2784.98 509.625 2793.84 499.3 2804.97 492.339C2816.11 485.301 2828.53 481.781 2842.22 481.781C2852.66 481.781 2861.24 483.56 2867.97 487.118C2874.7 490.599 2880.04 494.814 2883.98 499.764C2887.93 504.637 2890.98 509.238 2893.15 513.57H2894.89V424.702H2937V662.302H2895.7V634.226H2893.15C2890.98 638.557 2887.85 643.159 2883.75 648.032C2879.65 652.827 2874.24 656.926 2867.51 660.329C2860.78 663.733 2852.31 665.434 2842.1 665.434ZM2853.82 630.978C2862.71 630.978 2870.29 628.58 2876.56 623.785C2882.82 618.912 2887.58 612.144 2890.83 603.482C2894.07 594.819 2895.7 584.726 2895.7 573.202C2895.7 561.678 2894.07 551.662 2890.83 543.154C2887.66 534.646 2882.94 528.033 2876.67 523.315C2870.48 518.597 2862.87 516.238 2853.82 516.238C2844.46 516.238 2836.65 518.674 2830.38 523.547C2824.12 528.42 2819.4 535.149 2816.23 543.734C2813.06 552.319 2811.47 562.142 2811.47 573.202C2811.47 584.339 2813.06 594.278 2816.23 603.018C2819.48 611.68 2824.23 618.525 2830.5 623.553C2836.84 628.503 2844.61 630.978 2853.82 630.978ZM3187.24 490.019C3186.15 479.887 3181.59 471.997 3173.55 466.351C3165.58 460.705 3155.22 457.882 3142.46 457.882C3133.48 457.882 3125.79 459.236 3119.37 461.943C3112.95 464.65 3108.04 468.324 3104.63 472.964C3101.23 477.605 3099.49 482.903 3099.41 488.858C3099.41 493.808 3100.54 498.101 3102.78 501.736C3105.1 505.371 3108.23 508.465 3112.18 511.017C3116.12 513.492 3120.49 515.581 3125.29 517.282C3130.08 518.984 3134.91 520.415 3139.79 521.575L3162.06 527.144C3171.03 529.232 3179.66 532.055 3187.93 535.613C3196.29 539.171 3203.75 543.656 3210.32 549.071C3216.98 554.485 3222.24 561.02 3226.1 568.677C3229.97 576.334 3231.9 585.306 3231.9 595.593C3231.9 609.515 3228.35 621.774 3221.23 632.37C3214.11 642.888 3203.83 651.126 3190.37 657.081C3176.99 662.959 3160.79 665.898 3141.76 665.898C3123.27 665.898 3107.23 663.037 3093.61 657.313C3080.08 651.59 3069.48 643.237 3061.82 632.254C3054.25 621.271 3050.15 607.89 3049.53 592.112H3091.87C3092.49 600.388 3095.04 607.272 3099.53 612.763C3104.02 618.254 3109.86 622.354 3117.05 625.061C3124.32 627.768 3132.44 629.121 3141.41 629.121C3150.77 629.121 3158.97 627.729 3166.01 624.945C3173.12 622.083 3178.69 618.138 3182.71 613.111C3186.74 608.006 3188.78 602.051 3188.86 595.245C3188.78 589.057 3186.97 583.953 3183.41 579.931C3179.85 575.831 3174.86 572.428 3168.44 569.721C3162.1 566.937 3154.68 564.462 3146.17 562.296L3119.14 555.335C3099.57 550.308 3084.1 542.69 3072.73 532.48C3061.44 522.194 3055.79 508.542 3055.79 491.527C3055.79 477.528 3059.58 465.269 3067.16 454.75C3074.82 444.231 3085.22 436.071 3098.37 430.271C3111.52 424.392 3126.41 421.453 3143.04 421.453C3159.9 421.453 3174.67 424.392 3187.35 430.271C3200.12 436.071 3210.13 444.154 3217.4 454.518C3224.67 464.804 3228.42 476.638 3228.66 490.019H3187.24ZM3291.26 729.127C3285.53 729.127 3280.23 728.663 3275.36 727.735C3270.57 726.884 3266.74 725.878 3263.88 724.718L3273.62 692.002C3279.73 693.781 3285.18 694.631 3289.98 694.554C3294.78 694.477 3298.99 692.969 3302.63 690.029C3306.34 687.168 3309.47 682.372 3312.02 675.644L3315.62 666.014L3251 484.102H3295.55L3336.62 618.68H3338.47L3379.66 484.102H3424.33L3352.98 683.881C3349.65 693.317 3345.24 701.399 3339.75 708.128C3334.26 714.934 3327.53 720.116 3319.56 723.674C3311.68 727.309 3302.24 729.127 3291.26 729.127ZM3590.96 531.204L3552.68 535.381C3551.6 531.513 3549.7 527.878 3546.99 524.475C3544.36 521.072 3540.81 518.326 3536.32 516.238C3531.83 514.15 3526.34 513.106 3519.85 513.106C3511.11 513.106 3503.76 515.001 3497.8 518.79C3491.93 522.58 3489.03 527.492 3489.1 533.524C3489.03 538.706 3490.92 542.922 3494.79 546.17C3498.73 549.419 3505.23 552.087 3514.28 554.175L3544.67 560.672C3561.53 564.307 3574.06 570.069 3582.26 577.958C3590.54 585.847 3594.72 596.173 3594.79 608.935C3594.72 620.149 3591.43 630.049 3584.93 638.635C3578.51 647.142 3569.58 653.794 3558.13 658.589C3546.68 663.385 3533.54 665.782 3518.69 665.782C3496.88 665.782 3479.32 661.219 3466.02 652.092C3452.71 642.888 3444.78 630.088 3442.23 613.691L3483.19 609.747C3485.04 617.79 3488.99 623.862 3495.02 627.961C3501.05 632.06 3508.9 634.11 3518.57 634.11C3528.55 634.11 3536.55 632.06 3542.59 627.961C3548.7 623.862 3551.75 618.796 3551.75 612.763C3551.75 607.658 3549.78 603.443 3545.83 600.117C3541.97 596.792 3535.93 594.239 3527.74 592.46L3497.34 586.079C3480.25 582.522 3467.6 576.528 3459.4 568.097C3451.2 559.589 3447.14 548.838 3447.22 535.845C3447.14 524.862 3450.12 515.349 3456.15 507.305C3462.26 499.184 3470.73 492.919 3481.56 488.51C3492.47 484.024 3505.04 481.781 3519.27 481.781C3540.15 481.781 3556.58 486.229 3568.57 495.123C3580.64 504.018 3588.1 516.045 3590.96 531.204ZM3715.14 484.102V516.586H3612.7V484.102H3715.14ZM3637.99 441.408H3679.99V608.703C3679.99 614.349 3680.84 618.68 3682.54 621.696C3684.32 624.635 3686.64 626.646 3689.5 627.729C3692.36 628.812 3695.53 629.353 3699.01 629.353C3701.64 629.353 3704.04 629.16 3706.21 628.773C3708.45 628.387 3710.15 628.038 3711.31 627.729L3718.39 660.562C3716.15 661.335 3712.94 662.186 3708.76 663.114C3704.66 664.042 3699.63 664.583 3693.68 664.738C3683.16 665.047 3673.68 663.462 3665.25 659.981C3656.82 656.424 3650.13 650.932 3645.18 643.507C3640.31 636.082 3637.91 626.801 3637.99 615.663V441.408ZM3823.97 665.782C3806.11 665.782 3790.68 662.07 3777.68 654.645C3764.77 647.142 3754.83 636.546 3747.87 622.856C3740.91 609.089 3737.43 592.886 3737.43 574.246C3737.43 555.915 3740.91 539.828 3747.87 525.983C3754.91 512.062 3764.73 501.233 3777.34 493.499C3789.94 485.687 3804.75 481.781 3821.77 481.781C3832.75 481.781 3843.12 483.56 3852.86 487.118C3862.68 490.599 3871.35 496.013 3878.85 503.36C3886.43 510.708 3892.38 520.067 3896.72 531.436C3901.05 542.728 3903.21 556.186 3903.21 571.81V584.687H3757.15V556.379H3862.95C3862.88 548.336 3861.14 541.181 3857.73 534.917C3854.33 528.574 3849.57 523.586 3843.46 519.951C3837.43 516.315 3830.39 514.498 3822.35 514.498C3813.76 514.498 3806.22 516.586 3799.73 520.763C3793.23 524.862 3788.16 530.276 3784.53 537.005C3780.97 543.656 3779.15 550.965 3779.08 558.932V583.643C3779.08 594.007 3780.97 602.902 3784.76 610.327C3788.55 617.674 3793.85 623.321 3800.65 627.265C3807.46 631.132 3815.43 633.066 3824.55 633.066C3830.66 633.066 3836.19 632.215 3841.14 630.513C3846.09 628.735 3850.39 626.144 3854.02 622.74C3857.66 619.337 3860.4 615.122 3862.26 610.095L3901.47 614.503C3899 624.867 3894.28 633.917 3887.32 641.651C3880.43 649.308 3871.62 655.263 3860.87 659.517C3850.12 663.694 3837.82 665.782 3823.97 665.782ZM3935.47 662.302V484.102H3975.62V514.382H3977.7C3981.42 504.172 3987.57 496.206 3996.15 490.483C4004.74 484.682 4014.98 481.781 4026.89 481.781C4038.96 481.781 4049.13 484.721 4057.41 490.599C4065.76 496.399 4071.64 504.327 4075.04 514.382H4076.9C4080.84 504.482 4087.49 496.593 4096.85 490.715C4106.29 484.759 4117.46 481.781 4130.38 481.781C4146.78 481.781 4160.16 486.963 4170.52 497.328C4180.89 507.692 4186.07 522.812 4186.07 542.69V662.302H4143.95V549.187C4143.95 538.126 4141.02 530.044 4135.14 524.939C4129.26 519.757 4122.07 517.166 4113.56 517.166C4103.43 517.166 4095.5 520.337 4089.78 526.679C4084.13 532.944 4081.31 541.104 4081.31 551.159V662.302H4040.12V547.446C4040.12 538.242 4037.34 530.895 4031.77 525.403C4026.28 519.912 4019.08 517.166 4010.19 517.166C4004.16 517.166 3998.66 518.713 3993.71 521.807C3988.76 524.823 3984.82 529.116 3981.88 534.685C3978.94 540.176 3977.47 546.596 3977.47 553.943V662.302H3935.47ZM4366.25 531.204L4327.97 535.381C4326.88 531.513 4324.99 527.878 4322.28 524.475C4319.65 521.072 4316.09 518.326 4311.61 516.238C4307.12 514.15 4301.63 513.106 4295.13 513.106C4286.39 513.106 4279.05 515.001 4273.09 518.79C4267.21 522.58 4264.31 527.492 4264.39 533.524C4264.31 538.706 4266.21 542.922 4270.07 546.17C4274.02 549.419 4280.52 552.087 4289.56 554.175L4319.96 560.672C4336.82 564.307 4349.35 570.069 4357.55 577.958C4365.83 585.847 4370 596.173 4370.08 608.935C4370 620.149 4366.72 630.049 4360.22 638.635C4353.8 647.142 4344.87 653.794 4333.42 658.589C4321.97 663.385 4308.82 665.782 4293.97 665.782C4272.16 665.782 4254.61 661.219 4241.3 652.092C4228 642.888 4220.07 630.088 4217.52 613.691L4258.47 609.747C4260.33 617.79 4264.27 623.862 4270.31 627.961C4276.34 632.06 4284.19 634.11 4293.86 634.11C4303.83 634.11 4311.84 632.06 4317.87 627.961C4323.98 623.862 4327.04 618.796 4327.04 612.763C4327.04 607.658 4325.07 603.443 4321.12 600.117C4317.25 596.792 4311.22 594.239 4303.02 592.46L4272.63 586.079C4255.53 582.522 4242.89 576.528 4234.69 568.097C4226.49 559.589 4222.43 548.838 4222.51 535.845C4222.43 524.862 4225.41 515.349 4231.44 507.305C4237.55 499.184 4246.02 492.919 4256.85 488.51C4267.75 484.024 4280.32 481.781 4294.55 481.781C4315.44 481.781 4331.87 486.229 4343.86 495.123C4355.93 504.018 4363.39 516.045 4366.25 531.204Z" fill="url(#paint0_linear_49_48)"/>
<path fill-rule="evenodd" clip-rule="evenodd" d="M626.394 400.936L412.999 277.391C437.263 264.259 466.61 264.776 490.399 278.753L644.606 369.359C720.875 413.515 720.939 523.798 644.721 568.042L401.763 711.039L399.622 668.133L626.472 536.486C678.472 506.301 678.428 431.061 626.394 400.936Z" fill="url(#paint1_linear_49_48)"/>
<path fill-rule="evenodd" clip-rule="evenodd" d="M492.345 772.17L705.832 648.784C705.051 676.403 689.931 701.609 665.955 715.261L510.534 803.761C434.232 847.86 338.875 792.774 338.74 704.519L336.616 422.211L374.773 441.806L375.14 704.463C375.232 764.675 440.289 802.257 492.345 772.17Z" fill="url(#paint2_linear_49_48)"/>
<path fill-rule="evenodd" clip-rule="evenodd" d="M240.17 469.25L240.079 716.182C216.596 701.694 202.369 675.972 202.556 648.343L203.77 469.237C203.802 380.982 299.096 325.785 375.449 369.796L620.531 509.107L584.515 532.417L357.297 401.408C305.206 371.382 240.192 409.039 240.17 469.25Z" fill="url(#paint3_linear_49_48)"/>
<path d="M266.868 357.423C266.868 298.797 330.212 262.155 380.887 291.468L612.671 425.544C623.377 432.046 643.718 452.234 639.436 480.971L362.686 323.052C336.278 307.776 303.268 326.871 303.268 357.423V379.593L266.868 383.884L266.868 357.423Z" fill="url(#paint4_linear_49_48)"/>
<path d="M381.263 805.903C330.589 835.216 267.245 798.574 267.245 739.948L267.245 471.796C267.512 459.256 274.792 431.512 301.772 420.86L303.645 739.948C303.645 770.5 336.655 789.595 363.063 774.319L382.227 763.234L404.136 792.672L381.263 805.903Z" fill="url(#paint5_linear_49_48)"/>
<path d="M709.048 482.128C759.723 511.441 759.723 584.723 709.048 614.036L477.264 748.112C466.291 754.151 438.67 761.706 415.972 743.622L690.848 582.452C717.256 567.177 717.256 528.987 690.848 513.711L671.684 502.626L686.176 468.897L709.048 482.128Z" fill="url(#paint6_linear_49_48)"/>
<defs>
<linearGradient id="paint0_linear_49_48" x1="4384.44" y1="437.753" x2="4255.58" y2="1221.39" gradientUnits="userSpaceOnUse">
<stop stop-color="#3468E9"/>
<stop offset="1" stop-color="#1B44AB"/>
</linearGradient>
<linearGradient id="paint1_linear_49_48" x1="747.187" y1="395.553" x2="229.274" y2="739.764" gradientUnits="userSpaceOnUse">
<stop stop-color="#3468E9"/>
<stop offset="1" stop-color="#1B44AB"/>
</linearGradient>
<linearGradient id="paint2_linear_49_48" x1="747.187" y1="395.553" x2="229.274" y2="739.764" gradientUnits="userSpaceOnUse">
<stop stop-color="#3468E9"/>
<stop offset="1" stop-color="#1B44AB"/>
</linearGradient>
<linearGradient id="paint3_linear_49_48" x1="747.187" y1="395.553" x2="229.274" y2="739.764" gradientUnits="userSpaceOnUse">
<stop stop-color="#3468E9"/>
<stop offset="1" stop-color="#1B44AB"/>
</linearGradient>
<linearGradient id="paint4_linear_49_48" x1="747.187" y1="395.553" x2="229.274" y2="739.764" gradientUnits="userSpaceOnUse">
<stop stop-color="#3468E9"/>
<stop offset="1" stop-color="#1B44AB"/>
</linearGradient>
<linearGradient id="paint5_linear_49_48" x1="747.187" y1="395.553" x2="229.274" y2="739.764" gradientUnits="userSpaceOnUse">
<stop stop-color="#3468E9"/>
<stop offset="1" stop-color="#1B44AB"/>
</linearGradient>
<linearGradient id="paint6_linear_49_48" x1="747.187" y1="395.553" x2="229.274" y2="739.764" gradientUnits="userSpaceOnUse">
<stop stop-color="#3468E9"/>
<stop offset="1" stop-color="#1B44AB"/>
</linearGradient>
</defs>
</svg>
