<svg width="1300" height="500" viewBox="0 0 1300 500" fill="none" xmlns="http://www.w3.org/2000/svg">
<rect width="1300" height="500" fill="white"/>
<path d="M471.82 225.094C466.195 225.094 461.195 224.13 456.82 222.203C452.471 220.276 449.034 217.594 446.508 214.156C443.982 210.719 442.641 206.747 442.484 202.242H457.172C457.302 204.404 458.018 206.292 459.32 207.906C460.622 209.495 462.354 210.732 464.516 211.617C466.677 212.503 469.099 212.945 471.781 212.945C474.646 212.945 477.185 212.451 479.398 211.461C481.612 210.445 483.344 209.039 484.594 207.242C485.844 205.445 486.456 203.375 486.43 201.031C486.456 198.609 485.831 196.474 484.555 194.625C483.279 192.776 481.43 191.331 479.008 190.289C476.612 189.247 473.721 188.727 470.336 188.727H463.266V177.555H470.336C473.122 177.555 475.557 177.073 477.641 176.109C479.75 175.146 481.404 173.792 482.602 172.047C483.799 170.276 484.385 168.232 484.359 165.914C484.385 163.648 483.878 161.682 482.836 160.016C481.82 158.323 480.375 157.008 478.5 156.07C476.651 155.133 474.477 154.664 471.977 154.664C469.529 154.664 467.263 155.107 465.18 155.992C463.096 156.878 461.417 158.141 460.141 159.781C458.865 161.396 458.188 163.323 458.109 165.562H444.164C444.268 161.083 445.557 157.151 448.031 153.766C450.531 150.354 453.865 147.698 458.031 145.797C462.198 143.87 466.872 142.906 472.055 142.906C477.393 142.906 482.029 143.909 485.961 145.914C489.919 147.893 492.979 150.562 495.141 153.922C497.302 157.281 498.383 160.992 498.383 165.055C498.409 169.56 497.081 173.336 494.398 176.383C491.742 179.43 488.253 181.422 483.93 182.359V182.984C489.555 183.766 493.865 185.849 496.859 189.234C499.88 192.594 501.378 196.773 501.352 201.773C501.352 206.253 500.076 210.263 497.523 213.805C494.997 217.32 491.508 220.081 487.055 222.086C482.628 224.091 477.549 225.094 471.82 225.094ZM569.135 169.547C568.484 167.437 567.585 165.549 566.439 163.883C565.32 162.19 563.965 160.745 562.377 159.547C560.814 158.349 559.018 157.451 556.986 156.852C554.955 156.227 552.742 155.914 550.346 155.914C546.049 155.914 542.221 156.995 538.861 159.156C535.502 161.318 532.859 164.495 530.932 168.687C529.031 172.854 528.08 177.932 528.08 183.922C528.08 189.964 529.031 195.081 530.932 199.273C532.833 203.466 535.476 206.656 538.861 208.844C542.247 211.005 546.179 212.086 550.658 212.086C554.721 212.086 558.236 211.305 561.205 209.742C564.2 208.18 566.505 205.966 568.119 203.102C569.734 200.211 570.541 196.826 570.541 192.945L573.822 193.453H552.104V182.125H584.564V191.734C584.564 198.583 583.106 204.508 580.189 209.508C577.273 214.508 573.262 218.362 568.158 221.07C563.054 223.753 557.195 225.094 550.58 225.094C543.21 225.094 536.739 223.44 531.166 220.133C525.619 216.799 521.283 212.073 518.158 205.953C515.059 199.807 513.51 192.516 513.51 184.078C513.51 177.62 514.421 171.852 516.244 166.773C518.093 161.695 520.671 157.385 523.979 153.844C527.286 150.276 531.166 147.568 535.619 145.719C540.072 143.844 544.916 142.906 550.15 142.906C554.577 142.906 558.705 143.557 562.533 144.859C566.361 146.135 569.76 147.958 572.729 150.328C575.723 152.698 578.184 155.51 580.111 158.766C582.038 162.021 583.301 165.615 583.9 169.547H569.135ZM640.355 144V224H625.863V144H640.355ZM669.564 188.844V224H655.424V164H668.939V174.195H669.643C671.023 170.836 673.223 168.167 676.244 166.187C679.291 164.208 683.054 163.219 687.533 163.219C691.674 163.219 695.281 164.104 698.354 165.875C701.452 167.646 703.848 170.211 705.541 173.57C707.26 176.93 708.106 181.005 708.08 185.797V224H693.939V187.984C693.939 183.974 692.898 180.836 690.814 178.57C688.757 176.305 685.906 175.172 682.26 175.172C679.786 175.172 677.585 175.719 675.658 176.812C673.757 177.88 672.26 179.43 671.166 181.461C670.098 183.492 669.564 185.953 669.564 188.844ZM752.416 164V174.937H717.924V164H752.416ZM726.439 149.625H740.58V205.953C740.58 207.854 740.867 209.313 741.439 210.328C742.038 211.318 742.82 211.995 743.783 212.359C744.747 212.724 745.814 212.906 746.986 212.906C747.872 212.906 748.679 212.841 749.408 212.711C750.163 212.581 750.736 212.464 751.127 212.359L753.51 223.414C752.755 223.674 751.674 223.961 750.268 224.273C748.887 224.586 747.195 224.768 745.189 224.82C741.648 224.924 738.458 224.391 735.619 223.219C732.781 222.021 730.528 220.172 728.861 217.672C727.221 215.172 726.413 212.047 726.439 208.297V149.625ZM790.16 225.172C784.145 225.172 778.949 223.922 774.574 221.422C770.225 218.896 766.879 215.328 764.535 210.719C762.191 206.083 761.02 200.628 761.02 194.352C761.02 188.18 762.191 182.763 764.535 178.102C766.905 173.414 770.212 169.768 774.457 167.164C778.702 164.534 783.689 163.219 789.418 163.219C793.116 163.219 796.605 163.818 799.887 165.016C803.194 166.187 806.111 168.01 808.637 170.484C811.189 172.958 813.194 176.109 814.652 179.937C816.111 183.74 816.84 188.271 816.84 193.531V197.867H767.66V188.336H803.285C803.259 185.628 802.673 183.219 801.527 181.109C800.382 178.974 798.78 177.294 796.723 176.07C794.691 174.846 792.322 174.234 789.613 174.234C786.723 174.234 784.184 174.937 781.996 176.344C779.809 177.724 778.103 179.547 776.879 181.812C775.681 184.052 775.069 186.513 775.043 189.195V197.516C775.043 201.005 775.681 204 776.957 206.5C778.233 208.974 780.017 210.875 782.309 212.203C784.6 213.505 787.283 214.156 790.355 214.156C792.413 214.156 794.275 213.87 795.941 213.297C797.608 212.698 799.053 211.826 800.277 210.68C801.501 209.534 802.426 208.115 803.051 206.422L816.254 207.906C815.421 211.396 813.832 214.443 811.488 217.047C809.171 219.625 806.202 221.63 802.582 223.062C798.962 224.469 794.822 225.172 790.16 225.172ZM854.896 247.75C849.818 247.75 845.456 247.06 841.811 245.68C838.165 244.326 835.235 242.503 833.021 240.211C830.808 237.919 829.271 235.38 828.412 232.594L841.146 229.508C841.719 230.68 842.553 231.839 843.646 232.984C844.74 234.156 846.212 235.12 848.061 235.875C849.936 236.656 852.292 237.047 855.131 237.047C859.141 237.047 862.462 236.07 865.092 234.117C867.722 232.19 869.037 229.013 869.037 224.586V213.219H868.334C867.605 214.677 866.537 216.174 865.131 217.711C863.751 219.247 861.915 220.536 859.623 221.578C857.357 222.62 854.506 223.141 851.068 223.141C846.459 223.141 842.279 222.06 838.529 219.898C834.805 217.711 831.837 214.456 829.623 210.133C827.436 205.784 826.342 200.341 826.342 193.805C826.342 187.216 827.436 181.656 829.623 177.125C831.837 172.568 834.818 169.117 838.568 166.773C842.318 164.404 846.498 163.219 851.107 163.219C854.623 163.219 857.514 163.818 859.779 165.016C862.071 166.187 863.894 167.607 865.248 169.273C866.602 170.914 867.631 172.464 868.334 173.922H869.115V164H883.061V224.977C883.061 230.107 881.837 234.352 879.389 237.711C876.941 241.07 873.594 243.583 869.35 245.25C865.105 246.917 860.287 247.75 854.896 247.75ZM855.014 212.047C858.008 212.047 860.561 211.318 862.67 209.859C864.779 208.401 866.381 206.305 867.475 203.57C868.568 200.836 869.115 197.555 869.115 193.727C869.115 189.951 868.568 186.643 867.475 183.805C866.407 180.966 864.818 178.766 862.709 177.203C860.626 175.615 858.061 174.82 855.014 174.82C851.863 174.82 849.232 175.641 847.123 177.281C845.014 178.922 843.425 181.174 842.357 184.039C841.29 186.878 840.756 190.107 840.756 193.727C840.756 197.398 841.29 200.615 842.357 203.375C843.451 206.109 845.053 208.245 847.162 209.781C849.298 211.292 851.915 212.047 855.014 212.047ZM897.553 224V164H911.264V174H911.889C912.982 170.536 914.857 167.867 917.514 165.992C920.196 164.091 923.256 163.141 926.693 163.141C927.475 163.141 928.347 163.18 929.311 163.258C930.3 163.31 931.12 163.401 931.771 163.531V176.539C931.173 176.331 930.222 176.148 928.92 175.992C927.644 175.81 926.407 175.719 925.209 175.719C922.631 175.719 920.313 176.279 918.256 177.398C916.225 178.492 914.623 180.016 913.451 181.969C912.279 183.922 911.693 186.174 911.693 188.727V224H897.553ZM957.357 225.211C953.555 225.211 950.131 224.534 947.084 223.18C944.063 221.799 941.667 219.768 939.896 217.086C938.152 214.404 937.279 211.096 937.279 207.164C937.279 203.779 937.904 200.979 939.154 198.766C940.404 196.552 942.11 194.781 944.271 193.453C946.433 192.125 948.868 191.122 951.576 190.445C954.311 189.742 957.136 189.234 960.053 188.922C963.568 188.557 966.42 188.232 968.607 187.945C970.795 187.633 972.383 187.164 973.373 186.539C974.389 185.888 974.896 184.885 974.896 183.531V183.297C974.896 180.354 974.024 178.076 972.279 176.461C970.535 174.846 968.021 174.039 964.74 174.039C961.277 174.039 958.529 174.794 956.498 176.305C954.493 177.815 953.139 179.599 952.436 181.656L939.232 179.781C940.274 176.135 941.993 173.089 944.389 170.641C946.785 168.167 949.714 166.318 953.178 165.094C956.641 163.844 960.469 163.219 964.662 163.219C967.553 163.219 970.43 163.557 973.295 164.234C976.16 164.911 978.777 166.031 981.146 167.594C983.516 169.13 985.417 171.227 986.85 173.883C988.308 176.539 989.037 179.859 989.037 183.844V224H975.443V215.758H974.975C974.115 217.424 972.904 218.987 971.342 220.445C969.805 221.878 967.865 223.036 965.521 223.922C963.204 224.781 960.482 225.211 957.357 225.211ZM961.029 214.82C963.868 214.82 966.329 214.26 968.412 213.141C970.495 211.995 972.097 210.484 973.217 208.609C974.363 206.734 974.936 204.69 974.936 202.477V195.406C974.493 195.771 973.738 196.109 972.67 196.422C971.628 196.734 970.456 197.008 969.154 197.242C967.852 197.477 966.563 197.685 965.287 197.867C964.011 198.049 962.904 198.206 961.967 198.336C959.857 198.622 957.969 199.091 956.303 199.742C954.636 200.393 953.321 201.305 952.357 202.477C951.394 203.622 950.912 205.107 950.912 206.93C950.912 209.534 951.863 211.5 953.764 212.828C955.665 214.156 958.087 214.82 961.029 214.82ZM1033.22 164V174.937H998.725V164H1033.22ZM1007.24 149.625H1021.38V205.953C1021.38 207.854 1021.67 209.313 1022.24 210.328C1022.84 211.318 1023.62 211.995 1024.58 212.359C1025.55 212.724 1026.62 212.906 1027.79 212.906C1028.67 212.906 1029.48 212.841 1030.21 212.711C1030.96 212.581 1031.54 212.464 1031.93 212.359L1034.31 223.414C1033.56 223.674 1032.47 223.961 1031.07 224.273C1029.69 224.586 1028 224.768 1025.99 224.82C1022.45 224.924 1019.26 224.391 1016.42 223.219C1013.58 222.021 1011.33 220.172 1009.66 217.672C1008.02 215.172 1007.21 212.047 1007.24 208.297V149.625ZM1070.96 225.172C1064.95 225.172 1059.75 223.922 1055.38 221.422C1051.03 218.896 1047.68 215.328 1045.34 210.719C1042.99 206.083 1041.82 200.628 1041.82 194.352C1041.82 188.18 1042.99 182.763 1045.34 178.102C1047.71 173.414 1051.01 169.768 1055.26 167.164C1059.5 164.534 1064.49 163.219 1070.22 163.219C1073.92 163.219 1077.41 163.818 1080.69 165.016C1083.99 166.187 1086.91 168.01 1089.44 170.484C1091.99 172.958 1093.99 176.109 1095.45 179.937C1096.91 183.74 1097.64 188.271 1097.64 193.531V197.867H1048.46V188.336H1084.09C1084.06 185.628 1083.47 183.219 1082.33 181.109C1081.18 178.974 1079.58 177.294 1077.52 176.07C1075.49 174.846 1073.12 174.234 1070.41 174.234C1067.52 174.234 1064.98 174.937 1062.8 176.344C1060.61 177.724 1058.9 179.547 1057.68 181.812C1056.48 184.052 1055.87 186.513 1055.84 189.195V197.516C1055.84 201.005 1056.48 204 1057.76 206.5C1059.03 208.974 1060.82 210.875 1063.11 212.203C1065.4 213.505 1068.08 214.156 1071.16 214.156C1073.21 214.156 1075.08 213.87 1076.74 213.297C1078.41 212.698 1079.85 211.826 1081.08 210.68C1082.3 209.534 1083.23 208.115 1083.85 206.422L1097.05 207.906C1096.22 211.396 1094.63 214.443 1092.29 217.047C1089.97 219.625 1087 221.63 1083.38 223.062C1079.76 224.469 1075.62 225.172 1070.96 225.172ZM1131.87 225.055C1127.16 225.055 1122.94 223.844 1119.21 221.422C1115.49 219 1112.55 215.484 1110.38 210.875C1108.22 206.266 1107.14 200.667 1107.14 194.078C1107.14 187.411 1108.24 181.786 1110.42 177.203C1112.64 172.594 1115.62 169.117 1119.37 166.773C1123.12 164.404 1127.3 163.219 1131.91 163.219C1135.42 163.219 1138.31 163.818 1140.58 165.016C1142.85 166.187 1144.64 167.607 1145.97 169.273C1147.3 170.914 1148.33 172.464 1149.06 173.922H1149.64V144H1163.82V224H1149.92V214.547H1149.06C1148.33 216.005 1147.27 217.555 1145.89 219.195C1144.51 220.81 1142.69 222.19 1140.42 223.336C1138.16 224.482 1135.31 225.055 1131.87 225.055ZM1135.81 213.453C1138.81 213.453 1141.36 212.646 1143.47 211.031C1145.58 209.391 1147.18 207.112 1148.28 204.195C1149.37 201.279 1149.92 197.88 1149.92 194C1149.92 190.12 1149.37 186.747 1148.28 183.883C1147.21 181.018 1145.62 178.792 1143.51 177.203C1141.43 175.615 1138.86 174.82 1135.81 174.82C1132.66 174.82 1130.03 175.641 1127.92 177.281C1125.81 178.922 1124.23 181.187 1123.16 184.078C1122.09 186.969 1121.56 190.276 1121.56 194C1121.56 197.75 1122.09 201.096 1123.16 204.039C1124.25 206.956 1125.85 209.26 1127.96 210.953C1130.1 212.62 1132.72 213.453 1135.81 213.453ZM487.367 298.992C487.003 295.581 485.466 292.924 482.758 291.023C480.076 289.122 476.586 288.172 472.289 288.172C469.268 288.172 466.677 288.628 464.516 289.539C462.354 290.451 460.701 291.687 459.555 293.25C458.409 294.812 457.823 296.596 457.797 298.602C457.797 300.268 458.174 301.714 458.93 302.937C459.711 304.161 460.766 305.203 462.094 306.062C463.422 306.896 464.893 307.599 466.508 308.172C468.122 308.745 469.75 309.227 471.391 309.617L478.891 311.492C481.911 312.195 484.815 313.146 487.602 314.344C490.414 315.542 492.927 317.052 495.141 318.875C497.38 320.698 499.151 322.898 500.453 325.477C501.755 328.055 502.406 331.076 502.406 334.539C502.406 339.227 501.208 343.354 498.813 346.922C496.417 350.464 492.953 353.237 488.422 355.242C483.917 357.221 478.461 358.211 472.055 358.211C465.831 358.211 460.427 357.247 455.844 355.32C451.286 353.393 447.719 350.581 445.141 346.883C442.589 343.185 441.208 338.68 441 333.367H455.258C455.466 336.154 456.326 338.471 457.836 340.32C459.346 342.169 461.313 343.549 463.734 344.461C466.182 345.372 468.917 345.828 471.938 345.828C475.089 345.828 477.849 345.359 480.219 344.422C482.615 343.458 484.49 342.13 485.844 340.437C487.198 338.719 487.888 336.714 487.914 334.422C487.888 332.339 487.276 330.62 486.078 329.266C484.88 327.885 483.201 326.74 481.039 325.828C478.904 324.891 476.404 324.057 473.539 323.328L464.438 320.984C457.849 319.292 452.641 316.727 448.813 313.289C445.01 309.826 443.109 305.229 443.109 299.5C443.109 294.786 444.385 290.659 446.938 287.117C449.516 283.576 453.018 280.828 457.445 278.875C461.872 276.896 466.885 275.906 472.484 275.906C478.161 275.906 483.135 276.896 487.406 278.875C491.703 280.828 495.076 283.549 497.523 287.039C499.971 290.503 501.234 294.487 501.312 298.992H487.367ZM523.49 379.5C521.563 379.5 519.779 379.344 518.139 379.031C516.524 378.745 515.235 378.406 514.271 378.016L517.553 367C519.61 367.599 521.446 367.885 523.061 367.859C524.675 367.833 526.094 367.326 527.318 366.336C528.568 365.372 529.623 363.758 530.482 361.492L531.693 358.25L509.936 297H524.936L538.764 342.312H539.389L553.256 297H568.295L544.271 364.266C543.152 367.443 541.667 370.164 539.818 372.43C537.969 374.721 535.704 376.466 533.021 377.664C530.365 378.888 527.188 379.5 523.49 379.5ZM625.502 312.859L612.611 314.266C612.247 312.964 611.609 311.74 610.697 310.594C609.812 309.448 608.614 308.523 607.104 307.82C605.593 307.117 603.744 306.766 601.557 306.766C598.614 306.766 596.14 307.404 594.135 308.68C592.156 309.956 591.179 311.609 591.205 313.641C591.179 315.385 591.817 316.805 593.119 317.898C594.447 318.992 596.635 319.891 599.682 320.594L609.916 322.781C615.593 324.005 619.812 325.945 622.572 328.602C625.359 331.258 626.765 334.734 626.791 339.031C626.765 342.807 625.658 346.141 623.471 349.031C621.309 351.896 618.301 354.135 614.447 355.75C610.593 357.365 606.166 358.172 601.166 358.172C593.822 358.172 587.911 356.635 583.432 353.562C578.952 350.464 576.283 346.154 575.424 340.633L589.213 339.305C589.838 342.013 591.166 344.057 593.197 345.437C595.229 346.818 597.872 347.508 601.127 347.508C604.486 347.508 607.182 346.818 609.213 345.437C611.27 344.057 612.299 342.352 612.299 340.32C612.299 338.602 611.635 337.182 610.307 336.062C609.005 334.943 606.973 334.083 604.213 333.484L593.979 331.336C588.223 330.138 583.965 328.12 581.205 325.281C578.445 322.417 577.077 318.797 577.104 314.422C577.077 310.724 578.08 307.521 580.111 304.812C582.169 302.078 585.02 299.969 588.666 298.484C592.338 296.974 596.57 296.219 601.361 296.219C608.393 296.219 613.926 297.716 617.963 300.711C622.025 303.706 624.538 307.755 625.502 312.859ZM668.412 297V307.937H633.92V297H668.412ZM642.436 282.625H656.576V338.953C656.576 340.854 656.863 342.313 657.436 343.328C658.035 344.318 658.816 344.995 659.779 345.359C660.743 345.724 661.811 345.906 662.982 345.906C663.868 345.906 664.675 345.841 665.404 345.711C666.16 345.581 666.732 345.464 667.123 345.359L669.506 356.414C668.751 356.674 667.67 356.961 666.264 357.273C664.883 357.586 663.191 357.768 661.186 357.82C657.644 357.924 654.454 357.391 651.615 356.219C648.777 355.021 646.524 353.172 644.857 350.672C643.217 348.172 642.41 345.047 642.436 341.297V282.625ZM706.156 358.172C700.141 358.172 694.945 356.922 690.57 354.422C686.221 351.896 682.875 348.328 680.531 343.719C678.188 339.083 677.016 333.628 677.016 327.352C677.016 321.18 678.188 315.763 680.531 311.102C682.901 306.414 686.208 302.768 690.453 300.164C694.698 297.534 699.685 296.219 705.414 296.219C709.112 296.219 712.602 296.818 715.883 298.016C719.19 299.187 722.107 301.01 724.633 303.484C727.185 305.958 729.19 309.109 730.648 312.937C732.107 316.74 732.836 321.271 732.836 326.531V330.867H683.656V321.336H719.281C719.255 318.628 718.669 316.219 717.523 314.109C716.378 311.974 714.776 310.294 712.719 309.07C710.688 307.846 708.318 307.234 705.609 307.234C702.719 307.234 700.18 307.937 697.992 309.344C695.805 310.724 694.099 312.547 692.875 314.812C691.677 317.052 691.065 319.513 691.039 322.195V330.516C691.039 334.005 691.677 337 692.953 339.5C694.229 341.974 696.013 343.875 698.305 345.203C700.596 346.505 703.279 347.156 706.352 347.156C708.409 347.156 710.271 346.87 711.938 346.297C713.604 345.698 715.049 344.826 716.273 343.68C717.497 342.534 718.422 341.115 719.047 339.422L732.25 340.906C731.417 344.396 729.828 347.443 727.484 350.047C725.167 352.625 722.198 354.63 718.578 356.062C714.958 357.469 710.818 358.172 706.156 358.172ZM744.799 357V297H758.314V307.195H759.018C760.268 303.758 762.338 301.076 765.229 299.148C768.119 297.195 771.57 296.219 775.58 296.219C779.643 296.219 783.067 297.208 785.854 299.187C788.666 301.141 790.645 303.81 791.791 307.195H792.416C793.744 303.862 795.984 301.206 799.135 299.227C802.312 297.221 806.075 296.219 810.424 296.219C815.945 296.219 820.45 297.964 823.939 301.453C827.429 304.943 829.174 310.034 829.174 316.727V357H814.994V318.914C814.994 315.19 814.005 312.469 812.025 310.75C810.046 309.005 807.624 308.133 804.76 308.133C801.348 308.133 798.679 309.201 796.752 311.336C794.851 313.445 793.9 316.193 793.9 319.578V357H780.033V318.328C780.033 315.229 779.096 312.755 777.221 310.906C775.372 309.057 772.95 308.133 769.955 308.133C767.924 308.133 766.075 308.654 764.408 309.695C762.742 310.711 761.413 312.156 760.424 314.031C759.434 315.88 758.939 318.042 758.939 320.516V357H744.799ZM890.941 312.859L878.051 314.266C877.686 312.964 877.048 311.74 876.137 310.594C875.251 309.448 874.053 308.523 872.543 307.82C871.033 307.117 869.184 306.766 866.996 306.766C864.053 306.766 861.579 307.404 859.574 308.68C857.595 309.956 856.618 311.609 856.645 313.641C856.618 315.385 857.257 316.805 858.559 317.898C859.887 318.992 862.074 319.891 865.121 320.594L875.355 322.781C881.033 324.005 885.251 325.945 888.012 328.602C890.798 331.258 892.204 334.734 892.23 339.031C892.204 342.807 891.098 346.141 888.91 349.031C886.749 351.896 883.741 354.135 879.887 355.75C876.033 357.365 871.605 358.172 866.605 358.172C859.262 358.172 853.35 356.635 848.871 353.562C844.392 350.464 841.723 346.154 840.863 340.633L854.652 339.305C855.277 342.013 856.605 344.057 858.637 345.437C860.668 346.818 863.311 347.508 866.566 347.508C869.926 347.508 872.621 346.818 874.652 345.437C876.71 344.057 877.738 342.352 877.738 340.32C877.738 338.602 877.074 337.182 875.746 336.062C874.444 334.943 872.413 334.083 869.652 333.484L859.418 331.336C853.663 330.138 849.405 328.12 846.645 325.281C843.884 322.417 842.517 318.797 842.543 314.422C842.517 310.724 843.52 307.521 845.551 304.812C847.608 302.078 850.46 299.969 854.105 298.484C857.777 296.974 862.009 296.219 866.801 296.219C873.832 296.219 879.366 297.716 883.402 300.711C887.465 303.706 889.978 307.755 890.941 312.859Z" fill="url(#paint0_linear_47_21)"/>
<path fill-rule="evenodd" clip-rule="evenodd" d="M310.601 184.085L212.623 127.361C223.763 121.331 237.238 121.568 248.16 127.986L318.962 169.586C353.98 189.86 354.01 240.495 319.015 260.809L207.464 326.464L206.481 306.765L310.636 246.32C334.511 232.461 334.491 197.916 310.601 184.085Z" fill="url(#paint1_linear_47_21)"/>
<path fill-rule="evenodd" clip-rule="evenodd" d="M249.054 354.532L347.074 297.881C346.715 310.562 339.773 322.134 328.765 328.403L257.405 369.036C222.372 389.284 178.59 363.992 178.528 323.47L177.553 193.853L195.072 202.85L195.241 323.445C195.283 351.09 225.153 368.346 249.054 354.532Z" fill="url(#paint2_linear_47_21)"/>
<path fill-rule="evenodd" clip-rule="evenodd" d="M133.271 215.45L133.229 328.825C122.447 322.174 115.915 310.364 116.001 297.678L116.558 215.444C116.573 174.923 160.326 149.58 195.382 169.787L307.908 233.75L291.372 244.452L187.048 184.301C163.131 170.515 133.281 187.805 133.271 215.45Z" fill="url(#paint3_linear_47_21)"/>
<path d="M145.529 164.106C145.529 137.188 174.612 120.365 197.879 133.824L304.3 195.383C309.215 198.368 318.555 207.637 316.588 220.831L189.523 148.325C177.398 141.311 162.242 150.078 162.242 164.106V174.285L145.529 176.255L145.529 164.106Z" fill="url(#paint4_linear_47_21)"/>
<path d="M198.052 370.02C174.785 383.478 145.702 366.655 145.702 339.738L145.702 216.619C145.825 210.861 149.167 198.123 161.554 193.232L162.415 339.738C162.415 353.765 177.571 362.532 189.696 355.518L198.494 350.429L208.554 363.945L198.052 370.02Z" fill="url(#paint5_linear_47_21)"/>
<path d="M348.55 221.362C371.817 234.821 371.817 268.468 348.55 281.927L242.129 343.486C237.091 346.258 224.409 349.727 213.988 341.424L340.194 267.425C352.319 260.412 352.319 242.877 340.194 235.864L331.395 230.774L338.048 215.288L348.55 221.362Z" fill="url(#paint6_linear_47_21)"/>
<defs>
<linearGradient id="paint0_linear_47_21" x1="1193.18" y1="178.585" x2="970.826" y2="604.475" gradientUnits="userSpaceOnUse">
<stop stop-color="#3468E9"/>
<stop offset="1" stop-color="#1B44AB"/>
</linearGradient>
<linearGradient id="paint1_linear_47_21" x1="366.061" y1="181.613" x2="128.268" y2="339.653" gradientUnits="userSpaceOnUse">
<stop stop-color="#3468E9"/>
<stop offset="1" stop-color="#1B44AB"/>
</linearGradient>
<linearGradient id="paint2_linear_47_21" x1="366.061" y1="181.613" x2="128.268" y2="339.653" gradientUnits="userSpaceOnUse">
<stop stop-color="#3468E9"/>
<stop offset="1" stop-color="#1B44AB"/>
</linearGradient>
<linearGradient id="paint3_linear_47_21" x1="366.061" y1="181.613" x2="128.268" y2="339.653" gradientUnits="userSpaceOnUse">
<stop stop-color="#3468E9"/>
<stop offset="1" stop-color="#1B44AB"/>
</linearGradient>
<linearGradient id="paint4_linear_47_21" x1="366.061" y1="181.613" x2="128.268" y2="339.653" gradientUnits="userSpaceOnUse">
<stop stop-color="#3468E9"/>
<stop offset="1" stop-color="#1B44AB"/>
</linearGradient>
<linearGradient id="paint5_linear_47_21" x1="366.061" y1="181.613" x2="128.268" y2="339.653" gradientUnits="userSpaceOnUse">
<stop stop-color="#3468E9"/>
<stop offset="1" stop-color="#1B44AB"/>
</linearGradient>
<linearGradient id="paint6_linear_47_21" x1="366.061" y1="181.613" x2="128.268" y2="339.653" gradientUnits="userSpaceOnUse">
<stop stop-color="#3468E9"/>
<stop offset="1" stop-color="#1B44AB"/>
</linearGradient>
</defs>
</svg>
